<svg id="Layer_1" data-name="Layer 1" xmlns="http://www.w3.org/2000/svg" viewBox="0 0 2595.67 592.94"><defs><style>.cls-1{fill:none;}.cls-2{fill:#010101;}.cls-3{fill:#bc2f26;}.cls-4{fill:#232c5f;}</style></defs><title>Artboard 1</title><rect class="cls-1" x="351.33" y="-2709.75" width="1896.25" height="4325.98"/><path class="cls-2" d="M575.46,315.94h6.42a12.47,12.47,0,0,1,3.14.37,7,7,0,0,1,2.42,1.12,5.06,5.06,0,0,1,1.56,1.89,6.15,6.15,0,0,1,.55,2.68,6,6,0,0,1-.56,2.68,5.19,5.19,0,0,1-1.57,1.89,7.14,7.14,0,0,1-2.44,1.14,12.16,12.16,0,0,1-3.16.38h-4v10.56h-2.31Zm2.31,10.2h3.91a6.84,6.84,0,0,0,4.14-1.06,3.61,3.61,0,0,0,1.41-3.08,3.46,3.46,0,0,0-1.46-3.1,7.3,7.3,0,0,0-4.09-1h-3.91Z"/><path class="cls-2" d="M605.3,330.7v.48a5,5,0,0,1,0,.55H592.82a5.84,5.84,0,0,0,.45,2.12,5.33,5.33,0,0,0,1.15,1.73,5.57,5.57,0,0,0,1.73,1.17,5.74,5.74,0,0,0,5.09-.35,5.88,5.88,0,0,0,1.88-1.81l1.64,1.28a8.14,8.14,0,0,1-3,2.44,8.31,8.31,0,0,1-3.48.74,8,8,0,0,1-3.1-.59,7.24,7.24,0,0,1-2.45-1.65,7.82,7.82,0,0,1-1.62-2.5,8.18,8.18,0,0,1-.59-3.15,8.39,8.39,0,0,1,.58-3.14,7.6,7.6,0,0,1,1.6-2.5,7.37,7.37,0,0,1,2.41-1.65,7.47,7.47,0,0,1,3-.59,7.66,7.66,0,0,1,3.11.59,6.41,6.41,0,0,1,2.25,1.6,6.91,6.91,0,0,1,1.36,2.36A8.8,8.8,0,0,1,605.3,330.7Zm-2.21-.71a5.41,5.41,0,0,0-1.36-3.51,4.63,4.63,0,0,0-3.61-1.4,5,5,0,0,0-2,.4,5.35,5.35,0,0,0-1.64,1.09,5.43,5.43,0,0,0-1.12,1.57,5.07,5.07,0,0,0-.48,1.85Z"/><path class="cls-2" d="M624.91,331.14a8.19,8.19,0,0,1-.59,3.15,7.41,7.41,0,0,1-4.19,4.15,8.61,8.61,0,0,1-3.24.59,8.52,8.52,0,0,1-3.21-.59,7.48,7.48,0,0,1-2.53-1.65,7.56,7.56,0,0,1-1.65-2.5,8.63,8.63,0,0,1,0-6.29,7.56,7.56,0,0,1,1.65-2.5,7.48,7.48,0,0,1,2.53-1.65,8.52,8.52,0,0,1,3.21-.59,8.61,8.61,0,0,1,3.24.59,7.41,7.41,0,0,1,4.19,4.15A8.19,8.19,0,0,1,624.91,331.14Zm-2.31,0a6.88,6.88,0,0,0-.4-2.36,5.78,5.78,0,0,0-1.14-1.92,5.41,5.41,0,0,0-1.8-1.3,5.68,5.68,0,0,0-2.37-.48,5.57,5.57,0,0,0-2.36.48,5.44,5.44,0,0,0-1.78,1.3,5.77,5.77,0,0,0-1.14,1.92,7.14,7.14,0,0,0,0,4.72,5.77,5.77,0,0,0,1.14,1.92,5.23,5.23,0,0,0,1.78,1.28,5.73,5.73,0,0,0,2.36.46,5.85,5.85,0,0,0,2.37-.46,5.21,5.21,0,0,0,1.8-1.28,5.78,5.78,0,0,0,1.14-1.92A6.88,6.88,0,0,0,622.6,331.14Z"/><path class="cls-2" d="M631.77,346.35h-2.18V323.64h2.18v2.6h.1a6,6,0,0,1,2.49-2.23,7.18,7.18,0,0,1,3.16-.75,8.05,8.05,0,0,1,3.19.61,7.28,7.28,0,0,1,2.44,1.67,7.54,7.54,0,0,1,1.57,2.5,8.9,8.9,0,0,1,0,6.22,7.53,7.53,0,0,1-1.57,2.5,7.26,7.26,0,0,1-2.44,1.67,8.05,8.05,0,0,1-3.19.61,7.18,7.18,0,0,1-3.16-.75,6.1,6.1,0,0,1-2.49-2.17h-.1ZM643,331.14a7.14,7.14,0,0,0-.38-2.36,5.71,5.71,0,0,0-1.11-1.92,5.24,5.24,0,0,0-1.78-1.3,5.76,5.76,0,0,0-2.41-.48,5.69,5.69,0,0,0-2.31.46,5.56,5.56,0,0,0-1.83,1.28,5.92,5.92,0,0,0-1.2,1.92,6.81,6.81,0,0,0,0,4.78,5.74,5.74,0,0,0,1.2,1.91,5.66,5.66,0,0,0,4.14,1.73,5.93,5.93,0,0,0,2.41-.46,5,5,0,0,0,1.78-1.28,5.71,5.71,0,0,0,1.11-1.92A7.14,7.14,0,0,0,643,331.14Z"/><path class="cls-2" d="M652.21,338.65H650V314.4h2.18Z"/><path class="cls-2" d="M671.72,330.7v.48a5,5,0,0,1,0,.55H659.24a5.84,5.84,0,0,0,.45,2.12,5.33,5.33,0,0,0,1.15,1.73,5.57,5.57,0,0,0,1.73,1.17,5.74,5.74,0,0,0,5.09-.35,5.88,5.88,0,0,0,1.88-1.81l1.64,1.28a8.14,8.14,0,0,1-3,2.44,8.31,8.31,0,0,1-3.48.74,8,8,0,0,1-3.1-.59,7.24,7.24,0,0,1-2.45-1.65,7.82,7.82,0,0,1-1.62-2.5,8.18,8.18,0,0,1-.59-3.15,8.39,8.39,0,0,1,.58-3.14,7.6,7.6,0,0,1,1.6-2.5,7.37,7.37,0,0,1,2.41-1.65,7.47,7.47,0,0,1,3-.59,7.66,7.66,0,0,1,3.11.59,6.41,6.41,0,0,1,2.25,1.6,6.91,6.91,0,0,1,1.36,2.36A8.8,8.8,0,0,1,671.72,330.7ZM669.5,330a5.41,5.41,0,0,0-1.36-3.51,4.63,4.63,0,0,0-3.61-1.4,5,5,0,0,0-2,.4,5.35,5.35,0,0,0-1.64,1.09,5.43,5.43,0,0,0-1.12,1.57,5.07,5.07,0,0,0-.48,1.85Z"/><path class="cls-2" d="M687.09,317.86a1.42,1.42,0,0,1-.48,1.11,1.51,1.51,0,0,1-2.12,0,1.51,1.51,0,0,1,0-2.21,1.51,1.51,0,0,1,2.12,0A1.42,1.42,0,0,1,687.09,317.86Zm-.45,20.79h-2.18v-15h2.18Z"/><path class="cls-2" d="M694.4,323.64q.06.61.1,1.35t0,1.22h.06a4.94,4.94,0,0,1,2.09-2.13,6.08,6.08,0,0,1,3-.82A5.28,5.28,0,0,1,704,325a6.76,6.76,0,0,1,1.43,4.49v9.21h-2.18v-8.31a11,11,0,0,0-.19-2.15,4.5,4.5,0,0,0-.66-1.65,3.14,3.14,0,0,0-1.25-1.07,4.47,4.47,0,0,0-2-.38,4.21,4.21,0,0,0-1.68.35,4.14,4.14,0,0,0-1.46,1.08,5.36,5.36,0,0,0-1,1.83,8,8,0,0,0-.39,2.62v7.7h-2.18V326.94q0-.61,0-1.57t-.1-1.73Z"/><path class="cls-2" d="M732.36,338.65h-14.5v-2.41l9.3-9.4q.51-.51,1-1.11a9.6,9.6,0,0,0,.88-1.23,6.27,6.27,0,0,0,.61-1.36,5,5,0,0,0,.22-1.49,4.42,4.42,0,0,0-.35-1.8,3.94,3.94,0,0,0-1-1.36,4.48,4.48,0,0,0-1.44-.87,4.88,4.88,0,0,0-1.72-.31,4.41,4.41,0,0,0-3.08,1.14,5.19,5.19,0,0,0-1.6,2.9l-2.28-.45a6.57,6.57,0,0,1,.85-2.21,6.79,6.79,0,0,1,1.54-1.77,7.14,7.14,0,0,1,2.07-1.15,7.33,7.33,0,0,1,2.5-.42,8.43,8.43,0,0,1,2.62.4,6.28,6.28,0,0,1,2.16,1.19,5.79,5.79,0,0,1,1.48,2,6.29,6.29,0,0,1,.55,2.71,6.47,6.47,0,0,1-.3,2,8.8,8.8,0,0,1-.8,1.76,10.26,10.26,0,0,1-1.17,1.59q-.67.75-1.41,1.49l-8.18,8.12h12Z"/><path class="cls-2" d="M744.12,315.36a5.83,5.83,0,0,1,3.54,1,7.65,7.65,0,0,1,2.29,2.73,13.28,13.28,0,0,1,1.23,3.83,25.78,25.78,0,0,1,.37,4.36,25.5,25.5,0,0,1-.37,4.35,13.27,13.27,0,0,1-1.23,3.82,7.49,7.49,0,0,1-2.29,2.71,6.66,6.66,0,0,1-7.11,0,7.49,7.49,0,0,1-2.29-2.71,12.91,12.91,0,0,1-1.22-3.82,26.68,26.68,0,0,1-.35-4.35A27,27,0,0,1,737,323a12.92,12.92,0,0,1,1.22-3.83,7.65,7.65,0,0,1,2.29-2.73A5.89,5.89,0,0,1,744.12,315.36Zm0,2a3.54,3.54,0,0,0-2.51.93,6.49,6.49,0,0,0-1.58,2.37,13,13,0,0,0-.8,3.22,27.68,27.68,0,0,0-.23,3.48,27.31,27.31,0,0,0,.23,3.47A12.76,12.76,0,0,0,740,334a6.35,6.35,0,0,0,1.58,2.34,3.57,3.57,0,0,0,2.51.91,3.53,3.53,0,0,0,2.48-.91,6.35,6.35,0,0,0,1.58-2.34,13.24,13.24,0,0,0,.82-3.19,25.51,25.51,0,0,0,.24-3.47,25.87,25.87,0,0,0-.24-3.48,13.52,13.52,0,0,0-.82-3.22,6.49,6.49,0,0,0-1.58-2.37A3.5,3.5,0,0,0,744.12,317.32Z"/><path class="cls-2" d="M764.93,338.65h-2.31V318.79l-4.11,3.5-1.41-1.6,5.78-4.75h2.05Z"/><path class="cls-2" d="M787.29,318h-9.47l-.16,7a8.94,8.94,0,0,1,1.55-.38,10.24,10.24,0,0,1,1.58-.13,8.19,8.19,0,0,1,2.94.51,6.92,6.92,0,0,1,2.34,1.46,6.55,6.55,0,0,1,1.53,2.26,7.49,7.49,0,0,1,.54,2.89,8.37,8.37,0,0,1-.54,3,6.88,6.88,0,0,1-3.91,4,7.94,7.94,0,0,1-3.06.58,7.4,7.4,0,0,1-4.17-1.12,7.5,7.5,0,0,1-2.63-3l2.09-.93a5.07,5.07,0,0,0,1.85,2.25,4.79,4.79,0,0,0,2.74.83,5.57,5.57,0,0,0,2.13-.4,5,5,0,0,0,1.68-1.12,5.22,5.22,0,0,0,1.11-1.72,6,6,0,0,0,0-4.41,5,5,0,0,0-1.19-1.72,5.3,5.3,0,0,0-1.78-1.09,6.34,6.34,0,0,0-2.25-.38,9,9,0,0,0-2.42.34,11.54,11.54,0,0,0-2.29.91l.22-11.71h11.58Z"/><path class="cls-2" d="M804.45,338.65q-.06-.61-.1-1.35t0-1.22h-.06a4.94,4.94,0,0,1-2.09,2.13,6.09,6.09,0,0,1-3,.82,5.28,5.28,0,0,1-4.28-1.7,6.75,6.75,0,0,1-1.43-4.49v-9.21h2.18v8.31a11,11,0,0,0,.19,2.15,4.49,4.49,0,0,0,.66,1.65,3.13,3.13,0,0,0,1.25,1.08,4.47,4.47,0,0,0,2,.38,4.21,4.21,0,0,0,1.68-.35,4.14,4.14,0,0,0,1.46-1.08,5.36,5.36,0,0,0,1-1.83,8,8,0,0,0,.39-2.62v-7.7h2.18v11.71q0,.61,0,1.57t.1,1.73Z"/><path class="cls-2" d="M820.18,327.2a3.83,3.83,0,0,0-1.46-1.52,4.21,4.21,0,0,0-2.23-.59,5.34,5.34,0,0,0-1.15.13,3.15,3.15,0,0,0-1,.42,2.26,2.26,0,0,0-.72.74,2,2,0,0,0-.27,1.06,1.82,1.82,0,0,0,.87,1.62,8.33,8.33,0,0,0,2.73.95,9.12,9.12,0,0,1,3.93,1.59,3.45,3.45,0,0,1,1.27,2.81,4.15,4.15,0,0,1-1.8,3.61,5.23,5.23,0,0,1-1.81.8,8.78,8.78,0,0,1-2,.24,8.13,8.13,0,0,1-3.3-.71,6.12,6.12,0,0,1-2.63-2.21l1.73-1.28a4.9,4.9,0,0,0,4.17,2.34,6.84,6.84,0,0,0,1.35-.13,3.08,3.08,0,0,0,1.12-.45,2.3,2.3,0,0,0,1.06-2.05,1.91,1.91,0,0,0-1.14-1.78,14.94,14.94,0,0,0-3.29-1.11q-.67-.16-1.43-.4a4.88,4.88,0,0,1-1.4-.71,3.82,3.82,0,0,1-1.06-1.17,3.41,3.41,0,0,1-.42-1.76,4,4,0,0,1,.45-2,3.94,3.94,0,0,1,1.2-1.35,5.35,5.35,0,0,1,1.72-.79,7.69,7.69,0,0,1,2-.26,7,7,0,0,1,3,.71,4.92,4.92,0,0,1,2.21,2Z"/><path class="cls-2" d="M840.1,330.7v.48a5,5,0,0,1,0,.55H827.62a5.84,5.84,0,0,0,.45,2.12,5.33,5.33,0,0,0,1.15,1.73,5.57,5.57,0,0,0,1.73,1.17,5.74,5.74,0,0,0,5.09-.35,5.88,5.88,0,0,0,1.88-1.81l1.64,1.28a8.14,8.14,0,0,1-3,2.44,8.31,8.31,0,0,1-3.48.74,8,8,0,0,1-3.1-.59,7.24,7.24,0,0,1-2.45-1.65,7.82,7.82,0,0,1-1.62-2.5,8.18,8.18,0,0,1-.59-3.15,8.39,8.39,0,0,1,.58-3.14,7.6,7.6,0,0,1,1.6-2.5,7.37,7.37,0,0,1,2.41-1.65,7.47,7.47,0,0,1,3-.59,7.66,7.66,0,0,1,3.11.59,6.41,6.41,0,0,1,2.25,1.6,6.91,6.91,0,0,1,1.36,2.36A8.8,8.8,0,0,1,840.1,330.7Zm-2.21-.71a5.41,5.41,0,0,0-1.36-3.51,4.63,4.63,0,0,0-3.61-1.4,5,5,0,0,0-2,.4,5.35,5.35,0,0,0-1.64,1.09,5.43,5.43,0,0,0-1.12,1.57,5.07,5.07,0,0,0-.48,1.85Z"/><path class="cls-2" d="M857.14,336.12a6.16,6.16,0,0,1-2.5,2.18,7.28,7.28,0,0,1-3.18.74,8.05,8.05,0,0,1-3.19-.61,7.26,7.26,0,0,1-2.44-1.67,7.53,7.53,0,0,1-1.57-2.5,8.91,8.91,0,0,1,0-6.22,7.54,7.54,0,0,1,1.57-2.5,7.28,7.28,0,0,1,2.44-1.67,8.05,8.05,0,0,1,3.19-.61,7.15,7.15,0,0,1,3.18.75,6.21,6.21,0,0,1,2.5,2.23h.06V314.4h2.18v24.26H857.2v-2.53Zm-11.13-5a7.14,7.14,0,0,0,.38,2.36,5.71,5.71,0,0,0,1.11,1.92,5,5,0,0,0,1.78,1.28,5.93,5.93,0,0,0,2.41.46,5.63,5.63,0,0,0,5.34-3.64,6.81,6.81,0,0,0,0-4.78,5.92,5.92,0,0,0-1.2-1.92,5.56,5.56,0,0,0-1.83-1.28,5.69,5.69,0,0,0-2.31-.46,5.76,5.76,0,0,0-2.41.48,5.23,5.23,0,0,0-1.78,1.3,5.71,5.71,0,0,0-1.11,1.92A7.14,7.14,0,0,0,846,331.14Z"/><path class="cls-2" d="M875.56,326.11a4.52,4.52,0,0,1,2-2.09,6.21,6.21,0,0,1,3-.77,5.28,5.28,0,0,1,4.28,1.7,6.76,6.76,0,0,1,1.43,4.49v9.21h-2.18v-8.31a11,11,0,0,0-.19-2.15,4.51,4.51,0,0,0-.66-1.65,3.15,3.15,0,0,0-1.25-1.07,4.47,4.47,0,0,0-2-.38,4.21,4.21,0,0,0-1.68.35,4.14,4.14,0,0,0-1.46,1.08,5.35,5.35,0,0,0-1,1.83,8,8,0,0,0-.38,2.62v7.7h-2.18V314.4h2.18v11.71Z"/><path class="cls-2" d="M905.62,330.7v.48a5,5,0,0,1,0,.55H893.14a5.84,5.84,0,0,0,.45,2.12,5.33,5.33,0,0,0,1.15,1.73,5.57,5.57,0,0,0,1.73,1.17,5.74,5.74,0,0,0,5.09-.35,5.88,5.88,0,0,0,1.88-1.81l1.64,1.28a8.14,8.14,0,0,1-3,2.44,8.31,8.31,0,0,1-3.48.74,8,8,0,0,1-3.1-.59,7.24,7.24,0,0,1-2.45-1.65,7.82,7.82,0,0,1-1.62-2.5,8.18,8.18,0,0,1-.59-3.15,8.39,8.39,0,0,1,.58-3.14,7.6,7.6,0,0,1,1.6-2.5,7.37,7.37,0,0,1,2.41-1.65,7.47,7.47,0,0,1,3-.59,7.66,7.66,0,0,1,3.11.59,6.41,6.41,0,0,1,2.25,1.6,6.91,6.91,0,0,1,1.36,2.36A8.8,8.8,0,0,1,905.62,330.7Zm-2.21-.71a5.41,5.41,0,0,0-1.36-3.51,4.63,4.63,0,0,0-3.61-1.4,5,5,0,0,0-2,.4,5.35,5.35,0,0,0-1.64,1.09,5.43,5.43,0,0,0-1.12,1.57,5.07,5.07,0,0,0-.48,1.85Z"/><path class="cls-2" d="M910.27,325.37q0-1-.1-1.73h2.09q.06.61.1,1.35t0,1.22h.06a5.31,5.31,0,0,1,4.81-3q.42,0,.75,0a4.08,4.08,0,0,1,.69.13l-.29,2.09a4.09,4.09,0,0,0-.64-.13,6.46,6.46,0,0,0-.9-.06,4.47,4.47,0,0,0-1.67.32,3.58,3.58,0,0,0-1.4,1,5.29,5.29,0,0,0-1,1.76,8,8,0,0,0-.37,2.58v7.68H910.3V326.94Q910.3,326.33,910.27,325.37Z"/><path class="cls-2" d="M936.2,331.14a8.19,8.19,0,0,1-.59,3.15,7.41,7.41,0,0,1-4.19,4.15,8.61,8.61,0,0,1-3.24.59,8.52,8.52,0,0,1-3.21-.59,7.48,7.48,0,0,1-2.53-1.65,7.56,7.56,0,0,1-1.65-2.5,8.63,8.63,0,0,1,0-6.29,7.56,7.56,0,0,1,1.65-2.5,7.48,7.48,0,0,1,2.53-1.65,8.52,8.52,0,0,1,3.21-.59,8.61,8.61,0,0,1,3.24.59A7.41,7.41,0,0,1,935.6,328,8.19,8.19,0,0,1,936.2,331.14Zm-2.31,0a6.88,6.88,0,0,0-.4-2.36,5.78,5.78,0,0,0-1.14-1.92,5.41,5.41,0,0,0-1.8-1.3,5.68,5.68,0,0,0-2.37-.48,5.57,5.57,0,0,0-2.36.48,5.44,5.44,0,0,0-1.78,1.3,5.77,5.77,0,0,0-1.14,1.92,7.14,7.14,0,0,0,0,4.72,5.77,5.77,0,0,0,1.14,1.92,5.23,5.23,0,0,0,1.78,1.28,5.73,5.73,0,0,0,2.36.46,5.85,5.85,0,0,0,2.37-.46,5.21,5.21,0,0,0,1.8-1.28,5.78,5.78,0,0,0,1.14-1.92A6.88,6.88,0,0,0,933.89,331.14Z"/><path class="cls-2" d="M943.54,317.86a1.42,1.42,0,0,1-.48,1.11,1.51,1.51,0,0,1-2.12,0,1.51,1.51,0,0,1,0-2.21,1.51,1.51,0,0,1,2.12,0A1.42,1.42,0,0,1,943.54,317.86Zm-.45,20.79h-2.18v-15h2.18Z"/><path class="cls-2" d="M950.86,323.64q.06.61.1,1.35t0,1.22h.06a4.94,4.94,0,0,1,2.09-2.13,6.08,6.08,0,0,1,3-.82,5.28,5.28,0,0,1,4.28,1.7,6.76,6.76,0,0,1,1.43,4.49v9.21h-2.18v-8.31a11,11,0,0,0-.19-2.15,4.5,4.5,0,0,0-.66-1.65,3.14,3.14,0,0,0-1.25-1.07,4.47,4.47,0,0,0-2-.38,4.21,4.21,0,0,0-1.68.35,4.14,4.14,0,0,0-1.46,1.08,5.36,5.36,0,0,0-1,1.83,8,8,0,0,0-.39,2.62v7.7H948.9V326.94q0-.61,0-1.57t-.1-1.73Z"/><path class="cls-2" d="M623.8,368.55h-3.53v13.19h-2.18V368.55h-3.14v-1.83h3.14v-4.11a6.05,6.05,0,0,1,1.25-4,4.77,4.77,0,0,1,3.85-1.48q.42,0,.9,0a4.6,4.6,0,0,1,.9.18l-.38,1.92c-.24-.06-.47-.12-.71-.16a4.5,4.5,0,0,0-.8-.06,3.11,3.11,0,0,0-1.43.29,2.06,2.06,0,0,0-.87.82,3.57,3.57,0,0,0-.42,1.24,9.56,9.56,0,0,0-.11,1.51v3.85h3.53Z"/><path class="cls-2" d="M641.83,374.23a8.19,8.19,0,0,1-.59,3.15,7.41,7.41,0,0,1-4.19,4.15,8.61,8.61,0,0,1-3.24.59,8.52,8.52,0,0,1-3.21-.59,7.48,7.48,0,0,1-2.53-1.65,7.56,7.56,0,0,1-1.65-2.5,8.63,8.63,0,0,1,0-6.29,7.56,7.56,0,0,1,1.65-2.5,7.48,7.48,0,0,1,2.53-1.65,8.52,8.52,0,0,1,3.21-.59,8.61,8.61,0,0,1,3.24.59,7.41,7.41,0,0,1,4.19,4.15A8.19,8.19,0,0,1,641.83,374.23Zm-2.31,0a6.88,6.88,0,0,0-.4-2.36,5.78,5.78,0,0,0-1.14-1.92,5.41,5.41,0,0,0-1.8-1.3,5.68,5.68,0,0,0-2.37-.48,5.57,5.57,0,0,0-2.36.48,5.44,5.44,0,0,0-1.78,1.3,5.77,5.77,0,0,0-1.14,1.92,7.14,7.14,0,0,0,0,4.72,5.77,5.77,0,0,0,1.14,1.92,5.23,5.23,0,0,0,1.78,1.28,5.73,5.73,0,0,0,2.36.46,5.85,5.85,0,0,0,2.37-.46,5.21,5.21,0,0,0,1.8-1.28,5.78,5.78,0,0,0,1.14-1.92A6.88,6.88,0,0,0,639.52,374.23Z"/><path class="cls-2" d="M646.48,368.46q0-1-.1-1.73h2.09q.06.61.1,1.35t0,1.22h.06a5.31,5.31,0,0,1,4.81-3q.42,0,.75,0a4.08,4.08,0,0,1,.69.13l-.29,2.09a4.09,4.09,0,0,0-.64-.13,6.46,6.46,0,0,0-.9-.06,4.47,4.47,0,0,0-1.67.32,3.58,3.58,0,0,0-1.4,1,5.29,5.29,0,0,0-1,1.76,8,8,0,0,0-.37,2.58v7.68h-2.18V370Q646.52,369.42,646.48,368.46Z"/><path class="cls-2" d="M672.86,368.55h-4.24v8.76a5,5,0,0,0,.16,1.38,2,2,0,0,0,.47.85,1.59,1.59,0,0,0,.72.42,3.43,3.43,0,0,0,.9.11,3.77,3.77,0,0,0,.95-.13,4.78,4.78,0,0,0,.95-.35l.1,1.89a6.43,6.43,0,0,1-1.2.34,7.79,7.79,0,0,1-1.36.11,5.57,5.57,0,0,1-1.28-.16,3.24,3.24,0,0,1-1.25-.61,3.33,3.33,0,0,1-.95-1.22,4.7,4.7,0,0,1-.37-2v-9.37h-3.11v-1.83h3.11v-4.24h2.18v4.24h4.24Z"/><path class="cls-2" d="M678.57,369.19a4.52,4.52,0,0,1,2-2.09,6.21,6.21,0,0,1,3-.77,5.28,5.28,0,0,1,4.28,1.7,6.76,6.76,0,0,1,1.43,4.49v9.21h-2.18v-8.31a11,11,0,0,0-.19-2.15,4.51,4.51,0,0,0-.66-1.65,3.15,3.15,0,0,0-1.25-1.07,4.47,4.47,0,0,0-2-.38,4.21,4.21,0,0,0-1.68.35,4.14,4.14,0,0,0-1.46,1.08,5.35,5.35,0,0,0-1,1.83,8,8,0,0,0-.38,2.62v7.7h-2.18V357.48h2.18v11.71Z"/><path class="cls-2" d="M708.63,373.78v.48a5,5,0,0,1,0,.55H696.15a5.84,5.84,0,0,0,.45,2.12,5.33,5.33,0,0,0,1.15,1.73,5.57,5.57,0,0,0,1.73,1.17,5.74,5.74,0,0,0,5.09-.35,5.88,5.88,0,0,0,1.88-1.81l1.64,1.28a8.14,8.14,0,0,1-3,2.44,8.31,8.31,0,0,1-3.48.74,8,8,0,0,1-3.1-.59,7.24,7.24,0,0,1-2.45-1.65,7.82,7.82,0,0,1-1.62-2.5,8.18,8.18,0,0,1-.59-3.15,8.39,8.39,0,0,1,.58-3.14,7.6,7.6,0,0,1,1.6-2.5,7.37,7.37,0,0,1,2.41-1.65,7.47,7.47,0,0,1,3-.59,7.66,7.66,0,0,1,3.11.59,6.41,6.41,0,0,1,2.25,1.6,6.91,6.91,0,0,1,1.36,2.36A8.8,8.8,0,0,1,708.63,373.78Zm-2.21-.71a5.41,5.41,0,0,0-1.36-3.51,4.63,4.63,0,0,0-3.61-1.4,5,5,0,0,0-2,.4,5.35,5.35,0,0,0-1.64,1.09,5.43,5.43,0,0,0-1.12,1.57,5.07,5.07,0,0,0-.48,1.85Z"/><path class="cls-2" d="M727.69,368.55h-3.53v13.19H722V368.55h-3.14v-1.83H722v-4.11a6.05,6.05,0,0,1,1.25-4,4.77,4.77,0,0,1,3.85-1.48q.42,0,.9,0a4.6,4.6,0,0,1,.9.18l-.38,1.92c-.24-.06-.47-.12-.71-.16a4.5,4.5,0,0,0-.8-.06,3.11,3.11,0,0,0-1.43.29,2.06,2.06,0,0,0-.87.82,3.57,3.57,0,0,0-.42,1.24,9.56,9.56,0,0,0-.11,1.51v3.85h3.53Zm5.74-7.6a1.42,1.42,0,0,1-.48,1.11,1.51,1.51,0,0,1-2.12,0,1.51,1.51,0,0,1,0-2.21,1.51,1.51,0,0,1,2.12,0A1.42,1.42,0,0,1,733.44,360.95ZM733,381.74h-2.18v-15H733Z"/><path class="cls-2" d="M738.76,368.46q0-1-.1-1.73h2.09q.06.61.1,1.35t0,1.22h.06a5.31,5.31,0,0,1,4.81-3q.42,0,.75,0a4.08,4.08,0,0,1,.69.13l-.29,2.09a4.09,4.09,0,0,0-.64-.13,6.46,6.46,0,0,0-.9-.06,4.47,4.47,0,0,0-1.67.32,3.58,3.58,0,0,0-1.4,1,5.29,5.29,0,0,0-1,1.76,8,8,0,0,0-.37,2.58v7.68h-2.18V370Q738.79,369.42,738.76,368.46Z"/><path class="cls-2" d="M758.33,370.28a3.83,3.83,0,0,0-1.46-1.52,4.21,4.21,0,0,0-2.23-.59,5.34,5.34,0,0,0-1.15.13,3.15,3.15,0,0,0-1,.42,2.26,2.26,0,0,0-.72.74,2,2,0,0,0-.27,1.06,1.82,1.82,0,0,0,.87,1.62,8.33,8.33,0,0,0,2.73.95,9.12,9.12,0,0,1,3.93,1.59,3.45,3.45,0,0,1,1.27,2.81,4.15,4.15,0,0,1-1.8,3.61,5.23,5.23,0,0,1-1.81.8,8.78,8.78,0,0,1-2,.24,8.13,8.13,0,0,1-3.3-.71,6.12,6.12,0,0,1-2.63-2.21l1.73-1.28a4.9,4.9,0,0,0,4.17,2.34,6.84,6.84,0,0,0,1.35-.13,3.08,3.08,0,0,0,1.12-.45,2.3,2.3,0,0,0,1.06-2.05,1.91,1.91,0,0,0-1.14-1.78,14.94,14.94,0,0,0-3.29-1.11q-.67-.16-1.43-.4a4.88,4.88,0,0,1-1.4-.71,3.82,3.82,0,0,1-1.06-1.17,3.41,3.41,0,0,1-.42-1.76,4,4,0,0,1,.45-2,3.94,3.94,0,0,1,1.2-1.35,5.35,5.35,0,0,1,1.72-.79,7.69,7.69,0,0,1,2-.26,7,7,0,0,1,3,.71,4.92,4.92,0,0,1,2.21,2Z"/><path class="cls-2" d="M771.36,368.55h-4.24v8.76a5,5,0,0,0,.16,1.38,2,2,0,0,0,.47.85,1.59,1.59,0,0,0,.72.42,3.43,3.43,0,0,0,.9.11,3.77,3.77,0,0,0,.95-.13,4.78,4.78,0,0,0,.95-.35l.1,1.89a6.43,6.43,0,0,1-1.2.34,7.79,7.79,0,0,1-1.36.11,5.57,5.57,0,0,1-1.28-.16,3.24,3.24,0,0,1-1.25-.61,3.33,3.33,0,0,1-.95-1.22,4.7,4.7,0,0,1-.37-2v-9.37h-3.11v-1.83h3.11v-4.24h2.18v4.24h4.24Z"/><path class="cls-2" d="M789.55,368.55h-4.24v8.76a5,5,0,0,0,.16,1.38,2,2,0,0,0,.47.85,1.59,1.59,0,0,0,.72.42,3.43,3.43,0,0,0,.9.11,3.77,3.77,0,0,0,.95-.13,4.78,4.78,0,0,0,.95-.35l.1,1.89a6.43,6.43,0,0,1-1.2.34,7.79,7.79,0,0,1-1.36.11,5.57,5.57,0,0,1-1.28-.16,3.24,3.24,0,0,1-1.25-.61,3.33,3.33,0,0,1-.95-1.22,4.7,4.7,0,0,1-.37-2v-9.37H780v-1.83h3.11v-4.24h2.18v4.24h4.24Z"/><path class="cls-2" d="M795.62,360.95a1.42,1.42,0,0,1-.48,1.11,1.51,1.51,0,0,1-2.12,0,1.51,1.51,0,0,1,0-2.21,1.51,1.51,0,0,1,2.12,0A1.42,1.42,0,0,1,795.62,360.95Zm-.45,20.79H793v-15h2.18Z"/><path class="cls-2" d="M805.1,367.16a5.55,5.55,0,0,1,3-.82,6.66,6.66,0,0,1,1.27.13,4.05,4.05,0,0,1,1.28.5,4.7,4.7,0,0,1,1.16,1,5.48,5.48,0,0,1,.91,1.57,5.65,5.65,0,0,1,2.1-2.36,5.91,5.91,0,0,1,3.16-.82,5.28,5.28,0,0,1,4.28,1.7,6.76,6.76,0,0,1,1.43,4.49v9.21h-2.18v-8.31a7.27,7.27,0,0,0-.88-3.82,3.23,3.23,0,0,0-3-1.44,3.9,3.9,0,0,0-2,.48,3.84,3.84,0,0,0-1.32,1.27,5.61,5.61,0,0,0-.72,1.78,9.28,9.28,0,0,0-.22,2.05v8h-2.18V373a11.35,11.35,0,0,0-.16-2,4.16,4.16,0,0,0-.56-1.52,2.63,2.63,0,0,0-1.11-1,4.18,4.18,0,0,0-1.8-.34,3.78,3.78,0,0,0-1.56.35,4.07,4.07,0,0,0-1.41,1.08,5.52,5.52,0,0,0-1,1.83,8,8,0,0,0-.39,2.62v7.7H801V370q0-.61,0-1.57t-.1-1.73h2.09q.06.61.1,1.35t0,1.22h.06A5.11,5.11,0,0,1,805.1,367.16Z"/><path class="cls-2" d="M843,373.78v.48a5,5,0,0,1,0,.55H830.49a5.84,5.84,0,0,0,.45,2.12,5.33,5.33,0,0,0,1.15,1.73,5.57,5.57,0,0,0,1.73,1.17,5.74,5.74,0,0,0,5.09-.35,5.88,5.88,0,0,0,1.88-1.81l1.64,1.28a8.14,8.14,0,0,1-3,2.44,8.31,8.31,0,0,1-3.48.74,8,8,0,0,1-3.1-.59,7.24,7.24,0,0,1-2.45-1.65,7.82,7.82,0,0,1-1.62-2.5,8.18,8.18,0,0,1-.59-3.15,8.39,8.39,0,0,1,.58-3.14,7.6,7.6,0,0,1,1.6-2.5,7.37,7.37,0,0,1,2.41-1.65,7.47,7.47,0,0,1,3-.59,7.66,7.66,0,0,1,3.11.59,6.41,6.41,0,0,1,2.25,1.6,6.91,6.91,0,0,1,1.36,2.36A8.8,8.8,0,0,1,843,373.78Zm-2.21-.71a5.41,5.41,0,0,0-1.36-3.51,4.63,4.63,0,0,0-3.61-1.4,5,5,0,0,0-2,.4,5.35,5.35,0,0,0-1.64,1.09,5.43,5.43,0,0,0-1.12,1.57,5.07,5.07,0,0,0-.48,1.85Z"/><path class="cls-2" d="M869.35,373.78v.48a5,5,0,0,1,0,.55H856.87a5.84,5.84,0,0,0,.45,2.12,5.33,5.33,0,0,0,1.15,1.73,5.57,5.57,0,0,0,1.73,1.17,5.74,5.74,0,0,0,5.09-.35,5.88,5.88,0,0,0,1.88-1.81l1.64,1.28a8.14,8.14,0,0,1-3,2.44,8.31,8.31,0,0,1-3.48.74,8,8,0,0,1-3.1-.59,7.24,7.24,0,0,1-2.45-1.65,7.82,7.82,0,0,1-1.62-2.5,8.18,8.18,0,0,1-.59-3.15,8.39,8.39,0,0,1,.58-3.14,7.6,7.6,0,0,1,1.6-2.5,7.37,7.37,0,0,1,2.41-1.65,7.47,7.47,0,0,1,3-.59,7.66,7.66,0,0,1,3.11.59,6.41,6.41,0,0,1,2.25,1.6,6.91,6.91,0,0,1,1.36,2.36A8.8,8.8,0,0,1,869.35,373.78Zm-2.21-.71a5.41,5.41,0,0,0-1.36-3.51,4.63,4.63,0,0,0-3.61-1.4,5,5,0,0,0-2,.4,5.35,5.35,0,0,0-1.64,1.09,5.43,5.43,0,0,0-1.12,1.57,5.07,5.07,0,0,0-.48,1.85Z"/><path class="cls-2" d="M880.19,381.74h-2.41l-6.13-15h2.44L879,379.43H879l4.91-12.71h2.34Z"/><path class="cls-2" d="M903.36,373.78v.48a5,5,0,0,1,0,.55H890.88a5.84,5.84,0,0,0,.45,2.12,5.33,5.33,0,0,0,1.15,1.73,5.57,5.57,0,0,0,1.73,1.17,5.74,5.74,0,0,0,5.09-.35,5.88,5.88,0,0,0,1.88-1.81l1.64,1.28a8.14,8.14,0,0,1-3,2.44,8.31,8.31,0,0,1-3.48.74,8,8,0,0,1-3.1-.59,7.24,7.24,0,0,1-2.45-1.65,7.82,7.82,0,0,1-1.62-2.5,8.18,8.18,0,0,1-.59-3.15,8.39,8.39,0,0,1,.58-3.14,7.6,7.6,0,0,1,1.6-2.5,7.37,7.37,0,0,1,2.41-1.65,7.47,7.47,0,0,1,3-.59,7.66,7.66,0,0,1,3.11.59,6.41,6.41,0,0,1,2.25,1.6,6.91,6.91,0,0,1,1.36,2.36A8.8,8.8,0,0,1,903.36,373.78Zm-2.21-.71a5.41,5.41,0,0,0-1.36-3.51,4.63,4.63,0,0,0-3.61-1.4,5,5,0,0,0-2,.4,5.35,5.35,0,0,0-1.64,1.09,5.43,5.43,0,0,0-1.12,1.57,5.07,5.07,0,0,0-.48,1.85Z"/><path class="cls-2" d="M908,368.46q0-1-.1-1.73H910q.06.61.1,1.35t0,1.22h.06a5.31,5.31,0,0,1,4.81-3q.42,0,.75,0a4.08,4.08,0,0,1,.69.13l-.29,2.09a4.09,4.09,0,0,0-.64-.13,6.46,6.46,0,0,0-.9-.06,4.47,4.47,0,0,0-1.67.32,3.58,3.58,0,0,0-1.4,1,5.29,5.29,0,0,0-1,1.76,8,8,0,0,0-.37,2.58v7.68H908V370Q908,369.42,908,368.46Z"/><path class="cls-2" d="M921.07,380.2a1.74,1.74,0,0,1-.48,1.2,1.74,1.74,0,0,1-2.5,0,1.74,1.74,0,0,1,0-2.41,1.74,1.74,0,0,1,2.5,0A1.74,1.74,0,0,1,921.07,380.2Z"/><path class="cls-2" d="M1084,315.94h6.42a12.47,12.47,0,0,1,3.14.37,7,7,0,0,1,2.42,1.12,5.05,5.05,0,0,1,1.56,1.89,6.15,6.15,0,0,1,.55,2.68,6,6,0,0,1-.56,2.68,5.18,5.18,0,0,1-1.57,1.89,7.14,7.14,0,0,1-2.44,1.14,12.15,12.15,0,0,1-3.16.38h-4v10.56H1084Zm2.31,10.2h3.91a6.84,6.84,0,0,0,4.14-1.06,3.62,3.62,0,0,0,1.41-3.08,3.46,3.46,0,0,0-1.46-3.1,7.3,7.3,0,0,0-4.09-1h-3.91Z"/><path class="cls-2" d="M1113.86,330.7v.48a5.16,5.16,0,0,1,0,.55h-12.45a5.83,5.83,0,0,0,.45,2.12,5.32,5.32,0,0,0,1.15,1.73,5.56,5.56,0,0,0,1.73,1.17,5.74,5.74,0,0,0,5.09-.35,5.89,5.89,0,0,0,1.88-1.81l1.64,1.28a8.14,8.14,0,0,1-3,2.44,8.31,8.31,0,0,1-3.48.74,8,8,0,0,1-3.1-.59,7.25,7.25,0,0,1-2.45-1.65,7.82,7.82,0,0,1-1.62-2.5,8.19,8.19,0,0,1-.59-3.15,8.39,8.39,0,0,1,.58-3.14,7.6,7.6,0,0,1,1.6-2.5,7.38,7.38,0,0,1,2.41-1.65,7.47,7.47,0,0,1,3-.59,7.66,7.66,0,0,1,3.11.59,6.41,6.41,0,0,1,2.25,1.6,6.91,6.91,0,0,1,1.36,2.36A8.8,8.8,0,0,1,1113.86,330.7Zm-2.21-.71a5.42,5.42,0,0,0-1.36-3.51,4.63,4.63,0,0,0-3.61-1.4,5,5,0,0,0-2,.4,5.34,5.34,0,0,0-1.64,1.09,5.44,5.44,0,0,0-1.12,1.57,5.07,5.07,0,0,0-.48,1.85Z"/><path class="cls-2" d="M1133.46,331.14a8.19,8.19,0,0,1-.59,3.15,7.4,7.4,0,0,1-4.19,4.15,8.61,8.61,0,0,1-3.24.59,8.52,8.52,0,0,1-3.21-.59,7.49,7.49,0,0,1-2.53-1.65,7.57,7.57,0,0,1-1.65-2.5,8.63,8.63,0,0,1,0-6.29,7.57,7.57,0,0,1,1.65-2.5,7.49,7.49,0,0,1,2.53-1.65,8.52,8.52,0,0,1,3.21-.59,8.61,8.61,0,0,1,3.24.59,7.4,7.4,0,0,1,4.19,4.15A8.19,8.19,0,0,1,1133.46,331.14Zm-2.31,0a6.89,6.89,0,0,0-.4-2.36,5.79,5.79,0,0,0-1.14-1.92,5.41,5.41,0,0,0-1.8-1.3,5.68,5.68,0,0,0-2.38-.48,5.57,5.57,0,0,0-2.36.48,5.44,5.44,0,0,0-1.78,1.3,5.76,5.76,0,0,0-1.14,1.92,7.14,7.14,0,0,0,0,4.72,5.76,5.76,0,0,0,1.14,1.92,5.23,5.23,0,0,0,1.78,1.28,5.73,5.73,0,0,0,2.36.46,5.85,5.85,0,0,0,2.38-.46,5.21,5.21,0,0,0,1.8-1.28,5.79,5.79,0,0,0,1.14-1.92A6.89,6.89,0,0,0,1131.15,331.14Z"/><path class="cls-2" d="M1140.33,346.35h-2.18V323.64h2.18v2.6h.1a6,6,0,0,1,2.49-2.23,7.18,7.18,0,0,1,3.16-.75,8.05,8.05,0,0,1,3.19.61,7.28,7.28,0,0,1,2.44,1.67,7.54,7.54,0,0,1,1.57,2.5,8.9,8.9,0,0,1,0,6.22,7.52,7.52,0,0,1-1.57,2.5,7.25,7.25,0,0,1-2.44,1.67,8.05,8.05,0,0,1-3.19.61,7.18,7.18,0,0,1-3.16-.75,6.11,6.11,0,0,1-2.49-2.17h-.1Zm11.2-15.21a7.13,7.13,0,0,0-.38-2.36,5.72,5.72,0,0,0-1.11-1.92,5.23,5.23,0,0,0-1.78-1.3,5.76,5.76,0,0,0-2.41-.48,5.68,5.68,0,0,0-2.31.46,5.56,5.56,0,0,0-1.83,1.28,5.94,5.94,0,0,0-1.2,1.92,6.81,6.81,0,0,0,0,4.78,5.75,5.75,0,0,0,1.2,1.91,5.66,5.66,0,0,0,4.14,1.73,5.93,5.93,0,0,0,2.41-.46,5,5,0,0,0,1.78-1.28,5.72,5.72,0,0,0,1.11-1.92A7.13,7.13,0,0,0,1151.53,331.14Z"/><path class="cls-2" d="M1160.77,338.65h-2.18V314.4h2.18Z"/><path class="cls-2" d="M1180.27,330.7v.48a4.93,4.93,0,0,1,0,.55h-12.45a5.85,5.85,0,0,0,.45,2.12,5.34,5.34,0,0,0,1.15,1.73,5.57,5.57,0,0,0,1.73,1.17,5.74,5.74,0,0,0,5.09-.35,5.87,5.87,0,0,0,1.88-1.81l1.64,1.28a8.15,8.15,0,0,1-3,2.44,8.31,8.31,0,0,1-3.48.74,8,8,0,0,1-3.1-.59,7.24,7.24,0,0,1-2.45-1.65,7.82,7.82,0,0,1-1.62-2.5,8.17,8.17,0,0,1-.59-3.15,8.39,8.39,0,0,1,.58-3.14,7.6,7.6,0,0,1,1.6-2.5,7.36,7.36,0,0,1,2.41-1.65,7.47,7.47,0,0,1,3-.59,7.66,7.66,0,0,1,3.11.59,6.41,6.41,0,0,1,2.25,1.6,6.9,6.9,0,0,1,1.36,2.36A8.8,8.8,0,0,1,1180.27,330.7Zm-2.21-.71a5.41,5.41,0,0,0-1.36-3.51,4.63,4.63,0,0,0-3.61-1.4,5,5,0,0,0-2,.4,5.36,5.36,0,0,0-1.64,1.09,5.42,5.42,0,0,0-1.12,1.57,5.07,5.07,0,0,0-.48,1.85Z"/><path class="cls-2" d="M1205.33,336.12a6.17,6.17,0,0,1-2.5,2.18,7.28,7.28,0,0,1-3.18.74,8.05,8.05,0,0,1-3.19-.61,7.26,7.26,0,0,1-2.44-1.67,7.54,7.54,0,0,1-1.57-2.5,8.91,8.91,0,0,1,0-6.22,7.55,7.55,0,0,1,1.57-2.5,7.29,7.29,0,0,1,2.44-1.67,8.05,8.05,0,0,1,3.19-.61,7.15,7.15,0,0,1,3.18.75,6.21,6.21,0,0,1,2.5,2.23h.06V314.4h2.18v24.26h-2.18v-2.53Zm-11.13-5a7.15,7.15,0,0,0,.38,2.36,5.71,5.71,0,0,0,1.11,1.92,5,5,0,0,0,1.78,1.28,5.93,5.93,0,0,0,2.41.46,5.63,5.63,0,0,0,5.34-3.64,6.81,6.81,0,0,0,0-4.78,5.91,5.91,0,0,0-1.2-1.92,5.55,5.55,0,0,0-1.83-1.28,5.68,5.68,0,0,0-2.31-.46,5.76,5.76,0,0,0-2.41.48,5.22,5.22,0,0,0-1.78,1.3,5.71,5.71,0,0,0-1.11,1.92A7.15,7.15,0,0,0,1194.2,331.14Z"/><path class="cls-2" d="M1216.08,317.86a1.42,1.42,0,0,1-.48,1.11,1.51,1.51,0,0,1-2.12,0,1.51,1.51,0,0,1,0-2.21,1.51,1.51,0,0,1,2.12,0A1.42,1.42,0,0,1,1216.08,317.86Zm-.45,20.79h-2.18v-15h2.18Z"/><path class="cls-2" d="M1235.11,330.7v.48a4.93,4.93,0,0,1,0,.55h-12.45a5.85,5.85,0,0,0,.45,2.12,5.34,5.34,0,0,0,1.15,1.73,5.57,5.57,0,0,0,1.73,1.17,5.74,5.74,0,0,0,5.09-.35,5.87,5.87,0,0,0,1.88-1.81l1.64,1.28a8.15,8.15,0,0,1-3,2.44,8.31,8.31,0,0,1-3.48.74,8,8,0,0,1-3.1-.59,7.24,7.24,0,0,1-2.45-1.65,7.82,7.82,0,0,1-1.62-2.5,8.17,8.17,0,0,1-.59-3.15,8.39,8.39,0,0,1,.58-3.14,7.6,7.6,0,0,1,1.6-2.5,7.36,7.36,0,0,1,2.41-1.65,7.47,7.47,0,0,1,3-.59,7.66,7.66,0,0,1,3.11.59,6.41,6.41,0,0,1,2.25,1.6,6.9,6.9,0,0,1,1.36,2.36A8.8,8.8,0,0,1,1235.11,330.7Zm-2.21-.71a5.41,5.41,0,0,0-1.36-3.51,4.63,4.63,0,0,0-3.61-1.4,5,5,0,0,0-2,.4,5.36,5.36,0,0,0-1.64,1.09,5.42,5.42,0,0,0-1.12,1.57,5.07,5.07,0,0,0-.48,1.85Z"/><path class="cls-2" d="M1261.48,330.7v.48a4.93,4.93,0,0,1,0,.55H1249a5.85,5.85,0,0,0,.45,2.12,5.34,5.34,0,0,0,1.15,1.73,5.57,5.57,0,0,0,1.73,1.17,5.74,5.74,0,0,0,5.09-.35,5.87,5.87,0,0,0,1.88-1.81l1.64,1.28a8.15,8.15,0,0,1-3,2.44,8.31,8.31,0,0,1-3.48.74,8,8,0,0,1-3.1-.59,7.24,7.24,0,0,1-2.45-1.65,7.82,7.82,0,0,1-1.62-2.5,8.17,8.17,0,0,1-.59-3.15,8.39,8.39,0,0,1,.58-3.14,7.6,7.6,0,0,1,1.6-2.5,7.36,7.36,0,0,1,2.41-1.65,7.47,7.47,0,0,1,3-.59,7.66,7.66,0,0,1,3.11.59,6.41,6.41,0,0,1,2.25,1.6,6.9,6.9,0,0,1,1.36,2.36A8.8,8.8,0,0,1,1261.48,330.7Zm-2.21-.71a5.41,5.41,0,0,0-1.36-3.51,4.63,4.63,0,0,0-3.61-1.4,5,5,0,0,0-2,.4,5.36,5.36,0,0,0-1.64,1.09,5.42,5.42,0,0,0-1.12,1.57A5.07,5.07,0,0,0,1249,330Z"/><path class="cls-2" d="M1272.33,338.65h-2.41l-6.13-15h2.44l4.88,12.71h.06l4.91-12.71h2.34Z"/><path class="cls-2" d="M1295.49,330.7v.48a5.16,5.16,0,0,1,0,.55H1283a5.83,5.83,0,0,0,.45,2.12,5.32,5.32,0,0,0,1.15,1.73,5.56,5.56,0,0,0,1.73,1.17,5.74,5.74,0,0,0,5.09-.35,5.89,5.89,0,0,0,1.88-1.81l1.64,1.28a8.14,8.14,0,0,1-3,2.44,8.31,8.31,0,0,1-3.48.74,8,8,0,0,1-3.1-.59,7.25,7.25,0,0,1-2.45-1.65,7.82,7.82,0,0,1-1.62-2.5,8.19,8.19,0,0,1-.59-3.15,8.39,8.39,0,0,1,.58-3.14,7.6,7.6,0,0,1,1.6-2.5,7.38,7.38,0,0,1,2.41-1.65,7.47,7.47,0,0,1,3-.59,7.66,7.66,0,0,1,3.11.59,6.41,6.41,0,0,1,2.25,1.6,6.91,6.91,0,0,1,1.36,2.36A8.8,8.8,0,0,1,1295.49,330.7Zm-2.21-.71a5.42,5.42,0,0,0-1.36-3.51,4.63,4.63,0,0,0-3.61-1.4,5,5,0,0,0-2,.4,5.34,5.34,0,0,0-1.64,1.09,5.44,5.44,0,0,0-1.12,1.57A5.07,5.07,0,0,0,1283,330Z"/><path class="cls-2" d="M1300.15,325.37q0-1-.1-1.73h2.09q.06.61.1,1.35t0,1.22h.06a5.31,5.31,0,0,1,4.81-3q.42,0,.75,0a4.08,4.08,0,0,1,.69.13l-.29,2.09a4.08,4.08,0,0,0-.64-.13,6.47,6.47,0,0,0-.9-.06,4.47,4.47,0,0,0-1.67.32,3.58,3.58,0,0,0-1.4,1,5.3,5.3,0,0,0-1,1.76,8,8,0,0,0-.37,2.58v7.68h-2.18V326.94Q1300.18,326.33,1300.15,325.37Z"/><path class="cls-2" d="M1316.89,336.31h.06l4.65-12.67H1324l-7.48,18.9a7.94,7.94,0,0,1-1.72,2.78,4.06,4.06,0,0,1-3,1,10,10,0,0,1-2-.19l.22-2a5,5,0,0,0,1.6.26,2.29,2.29,0,0,0,1.76-.69,6,6,0,0,0,1.12-2l1.22-3.14-6.42-15h2.44Z"/><path class="cls-2" d="M1347.76,336.12a6.17,6.17,0,0,1-2.5,2.18,7.28,7.28,0,0,1-3.18.74,8.05,8.05,0,0,1-3.19-.61,7.26,7.26,0,0,1-2.44-1.67,7.54,7.54,0,0,1-1.57-2.5,8.91,8.91,0,0,1,0-6.22,7.55,7.55,0,0,1,1.57-2.5,7.29,7.29,0,0,1,2.44-1.67,8.05,8.05,0,0,1,3.19-.61,7.15,7.15,0,0,1,3.18.75,6.21,6.21,0,0,1,2.5,2.23h.06V314.4H1350v24.26h-2.18v-2.53Zm-11.13-5a7.15,7.15,0,0,0,.38,2.36,5.71,5.71,0,0,0,1.11,1.92,5,5,0,0,0,1.78,1.28,5.93,5.93,0,0,0,2.41.46,5.63,5.63,0,0,0,5.34-3.64,6.81,6.81,0,0,0,0-4.78,5.91,5.91,0,0,0-1.2-1.92,5.55,5.55,0,0,0-1.83-1.28,5.68,5.68,0,0,0-2.31-.46,5.76,5.76,0,0,0-2.41.48,5.22,5.22,0,0,0-1.78,1.3,5.71,5.71,0,0,0-1.11,1.92A7.15,7.15,0,0,0,1336.63,331.14Z"/><path class="cls-2" d="M1365.31,328.93a3.77,3.77,0,0,0-1-2.9,4.23,4.23,0,0,0-3-1,6.45,6.45,0,0,0-2.5.48,6,6,0,0,0-2,1.28l-1.22-1.44a7.2,7.2,0,0,1,2.45-1.54,9.22,9.22,0,0,1,3.45-.61,7.47,7.47,0,0,1,2.28.34,5.4,5.4,0,0,1,1.86,1,4.59,4.59,0,0,1,1.25,1.7,6,6,0,0,1,.45,2.41v6.58q0,.87.06,1.8a12.41,12.41,0,0,0,.19,1.57h-2q-.1-.55-.16-1.19a12.52,12.52,0,0,1-.06-1.25h-.06a6.32,6.32,0,0,1-2.33,2.17,6.85,6.85,0,0,1-3.13.66,7,7,0,0,1-1.78-.24,5,5,0,0,1-1.67-.79,4.47,4.47,0,0,1-1.25-1.42,4.22,4.22,0,0,1-.5-2.12,4,4,0,0,1,.88-2.75,5.28,5.28,0,0,1,2.36-1.51,13.84,13.84,0,0,1,3.38-.64q1.91-.15,4-.15Zm-.64,2.21q-1.35,0-2.71.11a11.84,11.84,0,0,0-2.47.45,4.68,4.68,0,0,0-1.81,1,2.19,2.19,0,0,0-.71,1.7,2.73,2.73,0,0,0,.3,1.35,2.5,2.5,0,0,0,.82.88,3.5,3.5,0,0,0,1.14.48,5.65,5.65,0,0,0,1.27.14,5,5,0,0,0,2.05-.4,4.32,4.32,0,0,0,1.51-1.09,4.81,4.81,0,0,0,.93-1.59,5.6,5.6,0,0,0,.32-1.89v-1.12Z"/><path class="cls-2" d="M1378.14,336.31h.06l4.65-12.67h2.37l-7.48,18.9a7.94,7.94,0,0,1-1.72,2.78,4.06,4.06,0,0,1-3,1,10,10,0,0,1-2-.19l.22-2a5,5,0,0,0,1.6.26,2.29,2.29,0,0,0,1.76-.69,6,6,0,0,0,1.12-2l1.22-3.14-6.42-15H1373Z"/><path class="cls-2" d="M1399.32,317.86a1.42,1.42,0,0,1-.48,1.11,1.51,1.51,0,0,1-2.12,0,1.51,1.51,0,0,1,0-2.21,1.51,1.51,0,0,1,2.12,0A1.42,1.42,0,0,1,1399.32,317.86Zm-.45,20.79h-2.18v-15h2.18Z"/><path class="cls-2" d="M1406.64,323.64q.06.61.1,1.35t0,1.22h.06a4.94,4.94,0,0,1,2.09-2.13,6.08,6.08,0,0,1,3-.82,5.28,5.28,0,0,1,4.28,1.7,6.76,6.76,0,0,1,1.43,4.49v9.21h-2.18v-8.31a11,11,0,0,0-.19-2.15,4.5,4.5,0,0,0-.66-1.65,3.15,3.15,0,0,0-1.25-1.07,4.47,4.47,0,0,0-2-.38,4.21,4.21,0,0,0-1.68.35,4.14,4.14,0,0,0-1.46,1.08,5.35,5.35,0,0,0-1,1.83,8,8,0,0,0-.39,2.62v7.7h-2.18V326.94q0-.61,0-1.57t-.1-1.73Z"/><path class="cls-2" d="M1438.11,325.47h-4.24v8.76a5,5,0,0,0,.16,1.38,1.94,1.94,0,0,0,.47.85,1.58,1.58,0,0,0,.72.42,3.43,3.43,0,0,0,.9.11,3.78,3.78,0,0,0,.95-.13,4.78,4.78,0,0,0,.95-.35l.1,1.89a6.43,6.43,0,0,1-1.2.34,7.79,7.79,0,0,1-1.36.11,5.56,5.56,0,0,1-1.28-.16,3.23,3.23,0,0,1-1.25-.61,3.33,3.33,0,0,1-.95-1.22,4.7,4.7,0,0,1-.37-2v-9.37h-3.11v-1.83h3.11V319.4h2.18v4.24h4.24Z"/><path class="cls-2" d="M1443.82,326.11a4.52,4.52,0,0,1,2-2.09,6.21,6.21,0,0,1,3-.77,5.28,5.28,0,0,1,4.28,1.7,6.76,6.76,0,0,1,1.43,4.49v9.21h-2.18v-8.31a11,11,0,0,0-.19-2.15,4.5,4.5,0,0,0-.66-1.65,3.14,3.14,0,0,0-1.25-1.07,4.48,4.48,0,0,0-2-.38,4.21,4.21,0,0,0-1.68.35,4.14,4.14,0,0,0-1.46,1.08,5.37,5.37,0,0,0-1,1.83,8,8,0,0,0-.38,2.62v7.7h-2.18V314.4h2.18v11.71Z"/><path class="cls-2" d="M1473.89,330.7v.48a5.16,5.16,0,0,1,0,.55h-12.45a5.83,5.83,0,0,0,.45,2.12,5.32,5.32,0,0,0,1.15,1.73,5.56,5.56,0,0,0,1.73,1.17,5.74,5.74,0,0,0,5.09-.35,5.89,5.89,0,0,0,1.88-1.81l1.64,1.28a8.14,8.14,0,0,1-3,2.44,8.31,8.31,0,0,1-3.48.74,8,8,0,0,1-3.1-.59,7.25,7.25,0,0,1-2.45-1.65,7.82,7.82,0,0,1-1.62-2.5,8.19,8.19,0,0,1-.59-3.15,8.39,8.39,0,0,1,.58-3.14,7.6,7.6,0,0,1,1.6-2.5,7.38,7.38,0,0,1,2.41-1.65,7.47,7.47,0,0,1,3-.59,7.66,7.66,0,0,1,3.11.59,6.41,6.41,0,0,1,2.25,1.6,6.91,6.91,0,0,1,1.36,2.36A8.8,8.8,0,0,1,1473.89,330.7Zm-2.21-.71a5.42,5.42,0,0,0-1.36-3.51,4.63,4.63,0,0,0-3.61-1.4,5,5,0,0,0-2,.4,5.34,5.34,0,0,0-1.64,1.09,5.44,5.44,0,0,0-1.12,1.57,5.07,5.07,0,0,0-.48,1.85Z"/><path class="cls-2" d="M1063,382.32a8.83,8.83,0,0,1-4.2-.88,7.51,7.51,0,0,1-2.6-2.23,8.2,8.2,0,0,1-1.33-2.94,13.26,13.26,0,0,1-.37-3V359h2.31v14a11.13,11.13,0,0,0,.32,2.68,6.67,6.67,0,0,0,1,2.31,5.37,5.37,0,0,0,1.91,1.64,7.12,7.12,0,0,0,5.84,0,5.37,5.37,0,0,0,1.91-1.64,6.69,6.69,0,0,0,1-2.31,11.13,11.13,0,0,0,.32-2.68V359h2.31v14.25a13.31,13.31,0,0,1-.37,3,8.22,8.22,0,0,1-1.33,2.94,7.47,7.47,0,0,1-2.62,2.23A8.85,8.85,0,0,1,1063,382.32Z"/><path class="cls-2" d="M1079.22,366.72q.06.61.1,1.35t0,1.22h.06a4.94,4.94,0,0,1,2.09-2.13,6.08,6.08,0,0,1,3-.82,5.28,5.28,0,0,1,4.28,1.7,6.76,6.76,0,0,1,1.43,4.49v9.21h-2.18v-8.31a11,11,0,0,0-.19-2.15,4.5,4.5,0,0,0-.66-1.65,3.14,3.14,0,0,0-1.25-1.07,4.47,4.47,0,0,0-2-.38,4.21,4.21,0,0,0-1.68.35,4.13,4.13,0,0,0-1.46,1.08,5.37,5.37,0,0,0-1,1.83,8,8,0,0,0-.38,2.62v7.7h-2.18V370q0-.61,0-1.57t-.1-1.73Z"/><path class="cls-2" d="M1098.57,360.95a1.42,1.42,0,0,1-.48,1.11,1.51,1.51,0,0,1-2.12,0,1.51,1.51,0,0,1,0-2.21,1.51,1.51,0,0,1,2.12,0A1.43,1.43,0,0,1,1098.57,360.95Zm-.45,20.79h-2.18v-15h2.18Z"/><path class="cls-2" d="M1110.7,368.55h-4.24v8.76a5,5,0,0,0,.16,1.38,2,2,0,0,0,.47.85,1.59,1.59,0,0,0,.72.42,3.44,3.44,0,0,0,.9.11,3.77,3.77,0,0,0,.95-.13,4.79,4.79,0,0,0,.95-.35l.1,1.89a6.43,6.43,0,0,1-1.2.34,7.79,7.79,0,0,1-1.36.11,5.57,5.57,0,0,1-1.28-.16,3.24,3.24,0,0,1-1.25-.61,3.33,3.33,0,0,1-.95-1.22,4.7,4.7,0,0,1-.37-2v-9.37h-3.11v-1.83h3.11v-4.24h2.18v4.24h4.24Z"/><path class="cls-2" d="M1127.77,373.78v.48a5.16,5.16,0,0,1,0,.55h-12.45a5.83,5.83,0,0,0,.45,2.12,5.32,5.32,0,0,0,1.15,1.73,5.56,5.56,0,0,0,1.73,1.17,5.74,5.74,0,0,0,5.09-.35,5.89,5.89,0,0,0,1.88-1.81l1.64,1.28a8.14,8.14,0,0,1-3,2.44,8.31,8.31,0,0,1-3.48.74,8,8,0,0,1-3.1-.59,7.25,7.25,0,0,1-2.45-1.65,7.82,7.82,0,0,1-1.62-2.5,8.19,8.19,0,0,1-.59-3.15,8.39,8.39,0,0,1,.58-3.14,7.6,7.6,0,0,1,1.6-2.5,7.38,7.38,0,0,1,2.41-1.65,7.47,7.47,0,0,1,3-.59,7.66,7.66,0,0,1,3.11.59,6.41,6.41,0,0,1,2.25,1.6,6.91,6.91,0,0,1,1.36,2.36A8.8,8.8,0,0,1,1127.77,373.78Zm-2.21-.71a5.42,5.42,0,0,0-1.36-3.51,4.63,4.63,0,0,0-3.61-1.4,5,5,0,0,0-2,.4,5.34,5.34,0,0,0-1.64,1.09,5.44,5.44,0,0,0-1.12,1.57,5.07,5.07,0,0,0-.48,1.85Z"/><path class="cls-2" d="M1144.8,379.21a6.16,6.16,0,0,1-2.5,2.18,7.28,7.28,0,0,1-3.18.74,8.05,8.05,0,0,1-3.19-.61,7.25,7.25,0,0,1-2.44-1.67,7.53,7.53,0,0,1-1.57-2.5,8.91,8.91,0,0,1,0-6.22,7.54,7.54,0,0,1,1.57-2.5,7.27,7.27,0,0,1,2.44-1.67,8.05,8.05,0,0,1,3.19-.61,7.15,7.15,0,0,1,3.18.75,6.2,6.2,0,0,1,2.5,2.23h.06V357.48h2.18v24.26h-2.18v-2.53Zm-11.13-5a7.13,7.13,0,0,0,.38,2.36,5.72,5.72,0,0,0,1.11,1.92,5,5,0,0,0,1.78,1.28,5.94,5.94,0,0,0,2.41.46,5.66,5.66,0,0,0,4.14-1.73,5.75,5.75,0,0,0,1.2-1.91,6.81,6.81,0,0,0,0-4.78,5.94,5.94,0,0,0-1.2-1.92,5.57,5.57,0,0,0-1.83-1.28,5.69,5.69,0,0,0-2.31-.46,5.76,5.76,0,0,0-2.41.48,5.24,5.24,0,0,0-1.78,1.3,5.72,5.72,0,0,0-1.11,1.92A7.13,7.13,0,0,0,1133.67,374.23Z"/><path class="cls-2" d="M1172,362.68a5.56,5.56,0,0,0-1.89-1.65,5.79,5.79,0,0,0-2.79-.63,6,6,0,0,0-1.7.26,5,5,0,0,0-1.57.79,4,4,0,0,0-1.14,1.33,3.92,3.92,0,0,0-.43,1.89,3.49,3.49,0,0,0,.42,1.8,4,4,0,0,0,1.1,1.2,6.37,6.37,0,0,0,1.57.82l1.84.64q1.18.39,2.38.83a8.56,8.56,0,0,1,2.16,1.17,5.65,5.65,0,0,1,1.57,1.83,5.78,5.78,0,0,1,.61,2.81,6.23,6.23,0,0,1-.65,2.94,6.15,6.15,0,0,1-1.68,2,7,7,0,0,1-2.37,1.19,9.59,9.59,0,0,1-2.68.38,10.31,10.31,0,0,1-2.05-.21,9.28,9.28,0,0,1-2-.63,8,8,0,0,1-1.73-1.06,7.69,7.69,0,0,1-1.41-1.48l2-1.48a6.08,6.08,0,0,0,2.07,2,5.86,5.86,0,0,0,3.13.82,6,6,0,0,0,1.77-.27,5,5,0,0,0,1.62-.83,4.63,4.63,0,0,0,1.19-1.38,4.29,4.29,0,0,0,0-3.88,4.16,4.16,0,0,0-1.24-1.32,7.6,7.6,0,0,0-1.76-.88q-1-.35-2.09-.71t-2.21-.8a7.45,7.45,0,0,1-2-1.17,5.47,5.47,0,0,1-1.4-1.78,6.5,6.5,0,0,1,.13-5.42,5.94,5.94,0,0,1,1.72-2,7.19,7.19,0,0,1,2.34-1.12,9.55,9.55,0,0,1,2.53-.35,8.75,8.75,0,0,1,3.95.82,6.77,6.77,0,0,1,2.47,1.94Z"/><path class="cls-2" d="M1185.59,368.55h-4.24v8.76a5,5,0,0,0,.16,1.38,1.94,1.94,0,0,0,.47.85,1.58,1.58,0,0,0,.72.42,3.43,3.43,0,0,0,.9.11,3.78,3.78,0,0,0,.95-.13,4.78,4.78,0,0,0,.95-.35l.1,1.89a6.43,6.43,0,0,1-1.2.34,7.79,7.79,0,0,1-1.36.11,5.56,5.56,0,0,1-1.28-.16,3.23,3.23,0,0,1-1.25-.61,3.33,3.33,0,0,1-.95-1.22,4.7,4.7,0,0,1-.37-2v-9.37h-3.11v-1.83h3.11v-4.24h2.18v4.24h4.24Z"/><path class="cls-2" d="M1198.45,372a3.77,3.77,0,0,0-1-2.9,4.23,4.23,0,0,0-3-1,6.45,6.45,0,0,0-2.5.48,6,6,0,0,0-2,1.28l-1.22-1.44a7.2,7.2,0,0,1,2.45-1.54,9.22,9.22,0,0,1,3.45-.61,7.47,7.47,0,0,1,2.28.34,5.4,5.4,0,0,1,1.86,1,4.59,4.59,0,0,1,1.25,1.7,6,6,0,0,1,.45,2.41v6.58q0,.87.06,1.8a12.41,12.41,0,0,0,.19,1.57h-2q-.1-.55-.16-1.19a12.52,12.52,0,0,1-.06-1.25h-.06a6.32,6.32,0,0,1-2.33,2.17,6.85,6.85,0,0,1-3.13.66,7,7,0,0,1-1.78-.24,5,5,0,0,1-1.67-.79,4.47,4.47,0,0,1-1.25-1.42,4.22,4.22,0,0,1-.5-2.12,4,4,0,0,1,.88-2.75,5.28,5.28,0,0,1,2.36-1.51,13.84,13.84,0,0,1,3.38-.64q1.91-.15,4-.15Zm-.64,2.21q-1.35,0-2.71.11a11.84,11.84,0,0,0-2.47.45,4.68,4.68,0,0,0-1.81,1,2.19,2.19,0,0,0-.71,1.7,2.73,2.73,0,0,0,.3,1.35,2.5,2.5,0,0,0,.82.88,3.5,3.5,0,0,0,1.14.48,5.65,5.65,0,0,0,1.27.14,5,5,0,0,0,2.05-.4,4.32,4.32,0,0,0,1.51-1.09,4.81,4.81,0,0,0,.93-1.59,5.6,5.6,0,0,0,.32-1.89v-1.12Z"/><path class="cls-2" d="M1212.57,368.55h-4.24v8.76a5,5,0,0,0,.16,1.38,2,2,0,0,0,.47.85,1.59,1.59,0,0,0,.72.42,3.44,3.44,0,0,0,.9.11,3.77,3.77,0,0,0,.95-.13,4.79,4.79,0,0,0,.95-.35l.1,1.89a6.43,6.43,0,0,1-1.2.34,7.79,7.79,0,0,1-1.36.11,5.57,5.57,0,0,1-1.28-.16,3.24,3.24,0,0,1-1.25-.61,3.33,3.33,0,0,1-.95-1.22,4.7,4.7,0,0,1-.37-2v-9.37H1203v-1.83h3.11v-4.24h2.18v4.24h4.24Z"/><path class="cls-2" d="M1229.64,373.78v.48a5.16,5.16,0,0,1,0,.55h-12.45a5.83,5.83,0,0,0,.45,2.12,5.32,5.32,0,0,0,1.15,1.73,5.56,5.56,0,0,0,1.73,1.17,5.74,5.74,0,0,0,5.09-.35,5.89,5.89,0,0,0,1.88-1.81l1.64,1.28a8.14,8.14,0,0,1-3,2.44,8.31,8.31,0,0,1-3.48.74,8,8,0,0,1-3.1-.59,7.25,7.25,0,0,1-2.45-1.65,7.82,7.82,0,0,1-1.62-2.5,8.19,8.19,0,0,1-.59-3.15,8.39,8.39,0,0,1,.58-3.14,7.6,7.6,0,0,1,1.6-2.5,7.38,7.38,0,0,1,2.41-1.65,7.47,7.47,0,0,1,3-.59,7.66,7.66,0,0,1,3.11.59,6.41,6.41,0,0,1,2.25,1.6,6.91,6.91,0,0,1,1.36,2.36A8.8,8.8,0,0,1,1229.64,373.78Zm-2.21-.71a5.42,5.42,0,0,0-1.36-3.51,4.63,4.63,0,0,0-3.61-1.4,5,5,0,0,0-2,.4,5.34,5.34,0,0,0-1.64,1.09,5.44,5.44,0,0,0-1.12,1.57,5.07,5.07,0,0,0-.48,1.85Z"/><path class="cls-2" d="M1242.31,370.28a3.83,3.83,0,0,0-1.46-1.52,4.21,4.21,0,0,0-2.23-.59,5.34,5.34,0,0,0-1.15.13,3.16,3.16,0,0,0-1,.42,2.26,2.26,0,0,0-.72.74,2,2,0,0,0-.27,1.06,1.82,1.82,0,0,0,.87,1.62,8.33,8.33,0,0,0,2.73.95,9.12,9.12,0,0,1,3.93,1.59,3.45,3.45,0,0,1,1.27,2.81,4.15,4.15,0,0,1-1.8,3.61,5.22,5.22,0,0,1-1.81.8,8.77,8.77,0,0,1-2,.24,8.14,8.14,0,0,1-3.31-.71,6.12,6.12,0,0,1-2.63-2.21l1.73-1.28a4.9,4.9,0,0,0,4.17,2.34,6.83,6.83,0,0,0,1.35-.13,3.08,3.08,0,0,0,1.12-.45,2.3,2.3,0,0,0,1.06-2.05,1.91,1.91,0,0,0-1.14-1.78,14.94,14.94,0,0,0-3.29-1.11q-.67-.16-1.43-.4a4.89,4.89,0,0,1-1.4-.71,3.82,3.82,0,0,1-1.06-1.17,3.41,3.41,0,0,1-.42-1.76,4,4,0,0,1,.45-2,4,4,0,0,1,1.2-1.35,5.35,5.35,0,0,1,1.72-.79,7.69,7.69,0,0,1,2-.26,7,7,0,0,1,3,.71,4.92,4.92,0,0,1,2.21,2Z"/><path class="cls-2" d="M1262.94,368.55h-3.53v13.19h-2.18V368.55h-3.14v-1.83h3.14v-4.11a6.05,6.05,0,0,1,1.25-4,4.77,4.77,0,0,1,3.85-1.48c.28,0,.58,0,.9,0a4.59,4.59,0,0,1,.9.18l-.38,1.92c-.24-.06-.47-.12-.71-.16a4.49,4.49,0,0,0-.8-.06,3.11,3.11,0,0,0-1.43.29,2.06,2.06,0,0,0-.87.82,3.55,3.55,0,0,0-.42,1.24,9.55,9.55,0,0,0-.11,1.51v3.85h3.53Z"/><path class="cls-2" d="M1266,368.46q0-1-.1-1.73H1268q.06.61.1,1.35t0,1.22h.06a5.31,5.31,0,0,1,4.81-3q.42,0,.75,0a4.08,4.08,0,0,1,.69.13l-.29,2.09a4.08,4.08,0,0,0-.64-.13,6.47,6.47,0,0,0-.9-.06,4.47,4.47,0,0,0-1.67.32,3.58,3.58,0,0,0-1.4,1,5.3,5.3,0,0,0-1,1.76,8,8,0,0,0-.37,2.58v7.68h-2.18V370Q1266.06,369.42,1266,368.46Z"/><path class="cls-2" d="M1291.95,374.23a8.19,8.19,0,0,1-.59,3.15,7.4,7.4,0,0,1-4.19,4.15,8.61,8.61,0,0,1-3.24.59,8.52,8.52,0,0,1-3.21-.59,7.49,7.49,0,0,1-2.53-1.65,7.57,7.57,0,0,1-1.65-2.5,8.63,8.63,0,0,1,0-6.29,7.57,7.57,0,0,1,1.65-2.5,7.49,7.49,0,0,1,2.53-1.65,8.52,8.52,0,0,1,3.21-.59,8.61,8.61,0,0,1,3.24.59,7.4,7.4,0,0,1,4.19,4.15A8.19,8.19,0,0,1,1291.95,374.23Zm-2.31,0a6.89,6.89,0,0,0-.4-2.36,5.79,5.79,0,0,0-1.14-1.92,5.41,5.41,0,0,0-1.8-1.3,5.68,5.68,0,0,0-2.38-.48,5.57,5.57,0,0,0-2.36.48,5.44,5.44,0,0,0-1.78,1.3,5.76,5.76,0,0,0-1.14,1.92,7.14,7.14,0,0,0,0,4.72,5.76,5.76,0,0,0,1.14,1.92,5.23,5.23,0,0,0,1.78,1.28,5.73,5.73,0,0,0,2.36.46,5.85,5.85,0,0,0,2.38-.46,5.21,5.21,0,0,0,1.8-1.28,5.79,5.79,0,0,0,1.14-1.92A6.89,6.89,0,0,0,1289.64,374.23Z"/><path class="cls-2" d="M1300.76,367.16a5.55,5.55,0,0,1,3-.82,6.66,6.66,0,0,1,1.27.13,4,4,0,0,1,1.28.5,4.69,4.69,0,0,1,1.15,1,5.47,5.47,0,0,1,.91,1.57,5.65,5.65,0,0,1,2.1-2.36,5.91,5.91,0,0,1,3.16-.82,5.28,5.28,0,0,1,4.28,1.7,6.76,6.76,0,0,1,1.43,4.49v9.21h-2.18v-8.31a7.26,7.26,0,0,0-.88-3.82,3.23,3.23,0,0,0-3-1.44,3.9,3.9,0,0,0-2,.48,3.84,3.84,0,0,0-1.32,1.27,5.61,5.61,0,0,0-.72,1.78,9.31,9.31,0,0,0-.22,2.05v8h-2.18V373a11.4,11.4,0,0,0-.16-2,4.17,4.17,0,0,0-.56-1.52,2.63,2.63,0,0,0-1.11-1,4.18,4.18,0,0,0-1.8-.34,3.77,3.77,0,0,0-1.56.35,4.07,4.07,0,0,0-1.41,1.08,5.53,5.53,0,0,0-1,1.83,8,8,0,0,0-.38,2.62v7.7h-2.18V370q0-.61,0-1.57t-.1-1.73h2.09q.06.61.1,1.35t0,1.22h.06A5.11,5.11,0,0,1,1300.76,367.16Z"/><path class="cls-2" d="M1347.91,374.23a8.19,8.19,0,0,1-.59,3.15,7.55,7.55,0,0,1-1.65,2.5,7.48,7.48,0,0,1-2.53,1.65,8.61,8.61,0,0,1-3.24.59,8.52,8.52,0,0,1-3.21-.59,7.48,7.48,0,0,1-2.53-1.65,7.55,7.55,0,0,1-1.65-2.5,8.63,8.63,0,0,1,0-6.29,7.55,7.55,0,0,1,1.65-2.5,7.48,7.48,0,0,1,2.53-1.65,8.52,8.52,0,0,1,3.21-.59,8.61,8.61,0,0,1,3.24.59,7.48,7.48,0,0,1,2.53,1.65,7.55,7.55,0,0,1,1.65,2.5A8.19,8.19,0,0,1,1347.91,374.23Zm-2.31,0a6.87,6.87,0,0,0-.4-2.36,5.77,5.77,0,0,0-1.14-1.92,5.4,5.4,0,0,0-1.8-1.3,5.68,5.68,0,0,0-2.37-.48,5.57,5.57,0,0,0-2.36.48,5.44,5.44,0,0,0-1.78,1.3,5.78,5.78,0,0,0-1.14,1.92,7.14,7.14,0,0,0,0,4.72,5.78,5.78,0,0,0,1.14,1.92,5.23,5.23,0,0,0,1.78,1.28,5.73,5.73,0,0,0,2.36.46,5.85,5.85,0,0,0,2.37-.46,5.2,5.2,0,0,0,1.8-1.28,5.77,5.77,0,0,0,1.14-1.92A6.87,6.87,0,0,0,1345.6,374.23Z"/><path class="cls-2" d="M1354.77,389.44h-2.18V366.72h2.18v2.6h.1a6,6,0,0,1,2.49-2.23,7.18,7.18,0,0,1,3.16-.75,8.05,8.05,0,0,1,3.19.61,7.29,7.29,0,0,1,2.44,1.67,7.55,7.55,0,0,1,1.57,2.5,8.91,8.91,0,0,1,0,6.22,7.54,7.54,0,0,1-1.57,2.5,7.26,7.26,0,0,1-2.44,1.67,8.05,8.05,0,0,1-3.19.61,7.18,7.18,0,0,1-3.16-.75,6.1,6.1,0,0,1-2.49-2.17h-.1Zm11.2-15.21a7.15,7.15,0,0,0-.38-2.36,5.71,5.71,0,0,0-1.11-1.92,5.24,5.24,0,0,0-1.78-1.3,5.76,5.76,0,0,0-2.41-.48,5.69,5.69,0,0,0-2.31.46,5.55,5.55,0,0,0-1.83,1.28,5.91,5.91,0,0,0-1.2,1.92,6.81,6.81,0,0,0,0,4.78,5.73,5.73,0,0,0,1.2,1.91,5.66,5.66,0,0,0,4.14,1.73,5.94,5.94,0,0,0,2.41-.46,5,5,0,0,0,1.78-1.28,5.71,5.71,0,0,0,1.11-1.92A7.15,7.15,0,0,0,1366,374.23Z"/><path class="cls-2" d="M1375.63,360.95a1.42,1.42,0,0,1-.48,1.11,1.51,1.51,0,0,1-2.12,0,1.51,1.51,0,0,1,0-2.21,1.51,1.51,0,0,1,2.12,0A1.42,1.42,0,0,1,1375.63,360.95Zm-.45,20.79H1373v-15h2.18Z"/><path class="cls-2" d="M1395.91,374.23a8.19,8.19,0,0,1-.59,3.15,7.55,7.55,0,0,1-1.65,2.5,7.48,7.48,0,0,1-2.53,1.65,8.61,8.61,0,0,1-3.24.59,8.52,8.52,0,0,1-3.21-.59,7.48,7.48,0,0,1-2.53-1.65,7.55,7.55,0,0,1-1.65-2.5,8.63,8.63,0,0,1,0-6.29,7.55,7.55,0,0,1,1.65-2.5,7.48,7.48,0,0,1,2.53-1.65,8.52,8.52,0,0,1,3.21-.59,8.61,8.61,0,0,1,3.24.59,7.48,7.48,0,0,1,2.53,1.65,7.55,7.55,0,0,1,1.65,2.5A8.19,8.19,0,0,1,1395.91,374.23Zm-2.31,0a6.87,6.87,0,0,0-.4-2.36,5.77,5.77,0,0,0-1.14-1.92,5.4,5.4,0,0,0-1.8-1.3,5.68,5.68,0,0,0-2.37-.48,5.57,5.57,0,0,0-2.36.48,5.44,5.44,0,0,0-1.78,1.3,5.78,5.78,0,0,0-1.14,1.92,7.14,7.14,0,0,0,0,4.72,5.78,5.78,0,0,0,1.14,1.92,5.23,5.23,0,0,0,1.78,1.28,5.73,5.73,0,0,0,2.36.46,5.85,5.85,0,0,0,2.37-.46,5.2,5.2,0,0,0,1.8-1.28,5.77,5.77,0,0,0,1.14-1.92A6.87,6.87,0,0,0,1393.59,374.23Z"/><path class="cls-2" d="M1403.25,360.95a1.42,1.42,0,0,1-.48,1.11,1.51,1.51,0,0,1-2.12,0,1.51,1.51,0,0,1,0-2.21,1.51,1.51,0,0,1,2.12,0A1.42,1.42,0,0,1,1403.25,360.95Zm-.45,20.79h-2.18v-15h2.18Z"/><path class="cls-2" d="M1421,379.21a6.17,6.17,0,0,1-2.5,2.18,7.28,7.28,0,0,1-3.18.74,8.05,8.05,0,0,1-3.19-.61,7.26,7.26,0,0,1-2.44-1.67,7.54,7.54,0,0,1-1.57-2.5,8.91,8.91,0,0,1,0-6.22,7.55,7.55,0,0,1,1.57-2.5,7.29,7.29,0,0,1,2.44-1.67,8.05,8.05,0,0,1,3.19-.61,7.15,7.15,0,0,1,3.18.75,6.21,6.21,0,0,1,2.5,2.23h.06V357.48h2.18v24.26H1421v-2.53Zm-11.13-5a7.15,7.15,0,0,0,.38,2.36,5.71,5.71,0,0,0,1.11,1.92,5,5,0,0,0,1.78,1.28,5.93,5.93,0,0,0,2.41.46,5.63,5.63,0,0,0,5.34-3.64,6.81,6.81,0,0,0,0-4.78,5.91,5.91,0,0,0-1.2-1.92,5.55,5.55,0,0,0-1.83-1.28,5.68,5.68,0,0,0-2.31-.46,5.76,5.76,0,0,0-2.41.48,5.22,5.22,0,0,0-1.78,1.3,5.71,5.71,0,0,0-1.11,1.92A7.15,7.15,0,0,0,1409.83,374.23Z"/><path class="cls-2" d="M1449.42,379.21a6.17,6.17,0,0,1-2.5,2.18,7.28,7.28,0,0,1-3.18.74,8.05,8.05,0,0,1-3.19-.61,7.26,7.26,0,0,1-2.44-1.67,7.54,7.54,0,0,1-1.57-2.5,8.91,8.91,0,0,1,0-6.22,7.55,7.55,0,0,1,1.57-2.5,7.29,7.29,0,0,1,2.44-1.67,8.05,8.05,0,0,1,3.19-.61,7.15,7.15,0,0,1,3.18.75,6.21,6.21,0,0,1,2.5,2.23h.06V357.48h2.18v24.26h-2.18v-2.53Zm-11.13-5a7.15,7.15,0,0,0,.38,2.36,5.71,5.71,0,0,0,1.11,1.92,5,5,0,0,0,1.78,1.28,5.93,5.93,0,0,0,2.41.46,5.63,5.63,0,0,0,5.34-3.64,6.81,6.81,0,0,0,0-4.78,5.91,5.91,0,0,0-1.2-1.92,5.55,5.55,0,0,0-1.83-1.28,5.68,5.68,0,0,0-2.31-.46,5.76,5.76,0,0,0-2.41.48,5.22,5.22,0,0,0-1.78,1.3,5.71,5.71,0,0,0-1.11,1.92A7.15,7.15,0,0,0,1438.29,374.23Z"/><path class="cls-2" d="M1457.48,368.46q0-1-.1-1.73h2.09q.06.61.1,1.35t0,1.22h.06a5.19,5.19,0,0,1,1.92-2.13,5.25,5.25,0,0,1,2.89-.82q.42,0,.75,0a4.07,4.07,0,0,1,.69.13l-.29,2.09a4.09,4.09,0,0,0-.64-.13,6.45,6.45,0,0,0-.9-.06,4.46,4.46,0,0,0-1.67.32,3.58,3.58,0,0,0-1.4,1,5.27,5.27,0,0,0-1,1.76,8,8,0,0,0-.37,2.58v7.68h-2.18V370Q1457.51,369.42,1457.48,368.46Z"/><path class="cls-2" d="M1480,381.74q-.06-.61-.1-1.35t0-1.22h-.06a4.94,4.94,0,0,1-2.09,2.13,6.09,6.09,0,0,1-3,.82,5.28,5.28,0,0,1-4.28-1.7,6.75,6.75,0,0,1-1.43-4.49v-9.21h2.18V375a11,11,0,0,0,.19,2.15,4.49,4.49,0,0,0,.66,1.65,3.13,3.13,0,0,0,1.25,1.08,4.47,4.47,0,0,0,2,.38,4.21,4.21,0,0,0,1.68-.35,4.13,4.13,0,0,0,1.46-1.08,5.36,5.36,0,0,0,1-1.83,8,8,0,0,0,.38-2.62v-7.7h2.18v11.71q0,.61,0,1.57t.1,1.73Z"/><path class="cls-2" d="M1488.5,384.76a7.25,7.25,0,0,0,2.45,2,7.59,7.59,0,0,0,6,.34,4.74,4.74,0,0,0,1.81-1.27,5.06,5.06,0,0,0,1-1.88,8,8,0,0,0,.32-2.29v-2.82h-.06a5.74,5.74,0,0,1-2.45,2.18,7.33,7.33,0,0,1-3.22.77,8.45,8.45,0,0,1-3.19-.58,7.25,7.25,0,0,1-2.44-1.59,7.08,7.08,0,0,1-1.57-2.42,8.47,8.47,0,0,1,0-6.06,7.63,7.63,0,0,1,1.57-2.47,7.29,7.29,0,0,1,2.44-1.67,8.05,8.05,0,0,1,3.19-.61,7.23,7.23,0,0,1,3.21.77,5.91,5.91,0,0,1,2.47,2.21h.06v-2.6h2.18v14.89a11,11,0,0,1-.34,2.6,6.55,6.55,0,0,1-1.25,2.53,7.06,7.06,0,0,1-2.49,1.92,9.28,9.28,0,0,1-4.08.77,10.1,10.1,0,0,1-4-.8,9.61,9.61,0,0,1-3.24-2.21Zm.42-10.72a6.53,6.53,0,0,0,.38,2.25,5.62,5.62,0,0,0,1.11,1.86,5.13,5.13,0,0,0,1.78,1.27,5.93,5.93,0,0,0,2.41.46,6.24,6.24,0,0,0,2.31-.42,5.28,5.28,0,0,0,1.83-1.19,5.44,5.44,0,0,0,1.2-1.85,6.33,6.33,0,0,0,.43-2.39,5.85,5.85,0,0,0-3.47-5.39,5.52,5.52,0,0,0-2.31-.48,5.76,5.76,0,0,0-2.41.48,5.33,5.33,0,0,0-1.78,1.28,5.62,5.62,0,0,0-1.11,1.86A6.53,6.53,0,0,0,1488.92,374Z"/><path class="cls-2" d="M1216.72,417.32a8.19,8.19,0,0,1-.59,3.15,7.55,7.55,0,0,1-1.65,2.5,7.48,7.48,0,0,1-2.53,1.65,8.61,8.61,0,0,1-3.24.59,8.52,8.52,0,0,1-3.21-.59A7.48,7.48,0,0,1,1203,423a7.55,7.55,0,0,1-1.65-2.5,8.63,8.63,0,0,1,0-6.29,7.55,7.55,0,0,1,1.65-2.5,7.48,7.48,0,0,1,2.53-1.65,8.52,8.52,0,0,1,3.21-.59,8.61,8.61,0,0,1,3.24.59,7.48,7.48,0,0,1,2.53,1.65,7.55,7.55,0,0,1,1.65,2.5A8.19,8.19,0,0,1,1216.72,417.32Zm-2.31,0a6.87,6.87,0,0,0-.4-2.36,5.77,5.77,0,0,0-1.14-1.92,5.4,5.4,0,0,0-1.8-1.3,5.68,5.68,0,0,0-2.37-.48,5.57,5.57,0,0,0-2.36.48,5.44,5.44,0,0,0-1.78,1.3,5.78,5.78,0,0,0-1.14,1.92,7.14,7.14,0,0,0,0,4.72,5.78,5.78,0,0,0,1.14,1.92,5.23,5.23,0,0,0,1.78,1.28,5.73,5.73,0,0,0,2.36.46,5.85,5.85,0,0,0,2.37-.46,5.2,5.2,0,0,0,1.8-1.28,5.77,5.77,0,0,0,1.14-1.92A6.87,6.87,0,0,0,1214.41,417.32Z"/><path class="cls-2" d="M1227.57,424.83h-2.41l-6.13-15h2.44l4.88,12.71h.06l4.91-12.71h2.34Z"/><path class="cls-2" d="M1250.74,416.87v.48a5.16,5.16,0,0,1,0,.55h-12.45a5.83,5.83,0,0,0,.45,2.12,5.32,5.32,0,0,0,1.15,1.73,5.56,5.56,0,0,0,1.73,1.17,5.74,5.74,0,0,0,5.09-.35,5.89,5.89,0,0,0,1.88-1.81l1.64,1.28a8.14,8.14,0,0,1-3,2.44,8.31,8.31,0,0,1-3.48.74,8,8,0,0,1-3.1-.59,7.25,7.25,0,0,1-2.45-1.65,7.82,7.82,0,0,1-1.62-2.5,8.19,8.19,0,0,1-.59-3.15,8.39,8.39,0,0,1,.58-3.14,7.6,7.6,0,0,1,1.6-2.5,7.38,7.38,0,0,1,2.41-1.65,7.47,7.47,0,0,1,3-.59,7.66,7.66,0,0,1,3.11.59,6.41,6.41,0,0,1,2.25,1.6,6.91,6.91,0,0,1,1.36,2.36A8.8,8.8,0,0,1,1250.74,416.87Zm-2.21-.71a5.42,5.42,0,0,0-1.36-3.51,4.63,4.63,0,0,0-3.61-1.4,5,5,0,0,0-2,.4,5.34,5.34,0,0,0-1.64,1.09,5.44,5.44,0,0,0-1.12,1.57,5.07,5.07,0,0,0-.48,1.85Z"/><path class="cls-2" d="M1255.39,411.54q0-1-.1-1.73h2.09q.06.61.1,1.35t0,1.22h.06a5.31,5.31,0,0,1,4.81-3q.42,0,.75,0a4.08,4.08,0,0,1,.69.13l-.29,2.09a4.08,4.08,0,0,0-.64-.13,6.47,6.47,0,0,0-.9-.06,4.47,4.47,0,0,0-1.67.32,3.58,3.58,0,0,0-1.4,1,5.3,5.3,0,0,0-1,1.76,8,8,0,0,0-.37,2.58v7.68h-2.18V413.11Q1255.42,412.51,1255.39,411.54Z"/><path class="cls-2" d="M1278.75,422.29a6.16,6.16,0,0,1-2.5,2.18,7.28,7.28,0,0,1-3.18.74,8.05,8.05,0,0,1-3.19-.61,7.25,7.25,0,0,1-2.44-1.67,7.53,7.53,0,0,1-1.57-2.5,8.91,8.91,0,0,1,0-6.22,7.54,7.54,0,0,1,1.57-2.5,7.27,7.27,0,0,1,2.44-1.67,8.05,8.05,0,0,1,3.19-.61,7.15,7.15,0,0,1,3.18.75,6.2,6.2,0,0,1,2.5,2.23h.06V400.57H1281v24.26h-2.18v-2.53Zm-11.13-5a7.13,7.13,0,0,0,.38,2.36,5.72,5.72,0,0,0,1.11,1.92,5,5,0,0,0,1.78,1.28,5.94,5.94,0,0,0,2.41.46,5.66,5.66,0,0,0,4.14-1.73,5.75,5.75,0,0,0,1.2-1.91,6.81,6.81,0,0,0,0-4.78,5.94,5.94,0,0,0-1.2-1.92,5.57,5.57,0,0,0-1.83-1.28,5.69,5.69,0,0,0-2.31-.46,5.76,5.76,0,0,0-2.41.48,5.24,5.24,0,0,0-1.78,1.3A5.72,5.72,0,0,0,1268,415,7.13,7.13,0,0,0,1267.61,417.32Z"/><path class="cls-2" d="M1301.75,417.32a8.19,8.19,0,0,1-.59,3.15,7.4,7.4,0,0,1-4.19,4.15,8.61,8.61,0,0,1-3.24.59,8.52,8.52,0,0,1-3.21-.59A7.49,7.49,0,0,1,1288,423a7.57,7.57,0,0,1-1.65-2.5,8.63,8.63,0,0,1,0-6.29,7.57,7.57,0,0,1,1.65-2.5,7.49,7.49,0,0,1,2.53-1.65,8.52,8.52,0,0,1,3.21-.59,8.61,8.61,0,0,1,3.24.59,7.4,7.4,0,0,1,4.19,4.15A8.19,8.19,0,0,1,1301.75,417.32Zm-2.31,0a6.89,6.89,0,0,0-.4-2.36,5.79,5.79,0,0,0-1.14-1.92,5.41,5.41,0,0,0-1.8-1.3,5.68,5.68,0,0,0-2.38-.48,5.57,5.57,0,0,0-2.36.48,5.44,5.44,0,0,0-1.78,1.3,5.76,5.76,0,0,0-1.14,1.92,7.14,7.14,0,0,0,0,4.72,5.76,5.76,0,0,0,1.14,1.92,5.23,5.23,0,0,0,1.78,1.28,5.73,5.73,0,0,0,2.36.46,5.85,5.85,0,0,0,2.38-.46,5.21,5.21,0,0,0,1.8-1.28,5.79,5.79,0,0,0,1.14-1.92A6.89,6.89,0,0,0,1299.44,417.32Z"/><path class="cls-2" d="M1314.42,413.37a3.83,3.83,0,0,0-1.46-1.52,4.21,4.21,0,0,0-2.23-.59,5.34,5.34,0,0,0-1.15.13,3.16,3.16,0,0,0-1,.42,2.26,2.26,0,0,0-.72.74,2,2,0,0,0-.27,1.06,1.82,1.82,0,0,0,.87,1.62,8.33,8.33,0,0,0,2.73.95,9.12,9.12,0,0,1,3.93,1.59,3.45,3.45,0,0,1,1.27,2.81,4.15,4.15,0,0,1-1.8,3.61,5.22,5.22,0,0,1-1.81.8,8.77,8.77,0,0,1-2,.24,8.14,8.14,0,0,1-3.31-.71,6.12,6.12,0,0,1-2.63-2.21l1.73-1.28a4.9,4.9,0,0,0,4.17,2.34,6.83,6.83,0,0,0,1.35-.13,3.08,3.08,0,0,0,1.12-.45,2.3,2.3,0,0,0,1.06-2.05,1.91,1.91,0,0,0-1.14-1.78,14.94,14.94,0,0,0-3.29-1.11q-.67-.16-1.43-.4a4.89,4.89,0,0,1-1.4-.71,3.82,3.82,0,0,1-1.06-1.17,3.41,3.41,0,0,1-.42-1.76,4,4,0,0,1,.45-2,4,4,0,0,1,1.2-1.35,5.35,5.35,0,0,1,1.72-.79,7.69,7.69,0,0,1,2-.26,7,7,0,0,1,3,.71,4.92,4.92,0,0,1,2.21,2Z"/><path class="cls-2" d="M1334.35,416.87v.48a4.93,4.93,0,0,1,0,.55h-12.45a5.85,5.85,0,0,0,.45,2.12,5.34,5.34,0,0,0,1.15,1.73,5.57,5.57,0,0,0,1.73,1.17,5.74,5.74,0,0,0,5.09-.35,5.87,5.87,0,0,0,1.88-1.81l1.64,1.28a8.15,8.15,0,0,1-3,2.44,8.31,8.31,0,0,1-3.48.74,8,8,0,0,1-3.1-.59,7.24,7.24,0,0,1-2.45-1.65,7.82,7.82,0,0,1-1.62-2.5,8.17,8.17,0,0,1-.59-3.15,8.39,8.39,0,0,1,.58-3.14,7.6,7.6,0,0,1,1.6-2.5,7.36,7.36,0,0,1,2.41-1.65,7.47,7.47,0,0,1,3-.59,7.66,7.66,0,0,1,3.11.59,6.41,6.41,0,0,1,2.25,1.6,6.9,6.9,0,0,1,1.36,2.36A8.8,8.8,0,0,1,1334.35,416.87Zm-2.21-.71a5.41,5.41,0,0,0-1.36-3.51,4.63,4.63,0,0,0-3.61-1.4,5,5,0,0,0-2,.4,5.36,5.36,0,0,0-1.64,1.09,5.42,5.42,0,0,0-1.12,1.57,5.07,5.07,0,0,0-.48,1.85Z"/><path class="cls-2" d="M1347,413.37a3.84,3.84,0,0,0-1.46-1.52,4.21,4.21,0,0,0-2.23-.59,5.34,5.34,0,0,0-1.15.13,3.15,3.15,0,0,0-1,.42,2.27,2.27,0,0,0-.72.74,2,2,0,0,0-.27,1.06,1.82,1.82,0,0,0,.87,1.62,8.34,8.34,0,0,0,2.73.95,9.12,9.12,0,0,1,3.93,1.59,3.45,3.45,0,0,1,1.27,2.81,4.15,4.15,0,0,1-1.8,3.61,5.23,5.23,0,0,1-1.81.8,8.78,8.78,0,0,1-2,.24,8.13,8.13,0,0,1-3.3-.71,6.12,6.12,0,0,1-2.63-2.21l1.73-1.28a4.9,4.9,0,0,0,4.17,2.34,6.84,6.84,0,0,0,1.35-.13,3.09,3.09,0,0,0,1.12-.45,2.3,2.3,0,0,0,1.06-2.05,1.91,1.91,0,0,0-1.14-1.78,14.93,14.93,0,0,0-3.29-1.11q-.67-.16-1.43-.4a4.87,4.87,0,0,1-1.4-.71,3.82,3.82,0,0,1-1.06-1.17,3.41,3.41,0,0,1-.42-1.76,4,4,0,0,1,.45-2,3.93,3.93,0,0,1,1.2-1.35,5.35,5.35,0,0,1,1.72-.79,7.69,7.69,0,0,1,2-.26,7,7,0,0,1,3,.71,4.92,4.92,0,0,1,2.21,2Z"/><path class="cls-2" d="M1356.3,423.29a1.74,1.74,0,0,1-.48,1.2,1.74,1.74,0,0,1-2.5,0,1.74,1.74,0,0,1,0-2.41,1.74,1.74,0,0,1,2.5,0A1.74,1.74,0,0,1,1356.3,423.29Z"/><path class="cls-2" d="M1575.06,315.94h6.42a12.47,12.47,0,0,1,3.14.37,7,7,0,0,1,2.42,1.12,5.06,5.06,0,0,1,1.56,1.89,6.15,6.15,0,0,1,.55,2.68,6,6,0,0,1-.56,2.68,5.19,5.19,0,0,1-1.57,1.89,7.14,7.14,0,0,1-2.44,1.14,12.16,12.16,0,0,1-3.16.38h-4v10.56h-2.31Zm2.31,10.2h3.91a6.84,6.84,0,0,0,4.14-1.06,3.61,3.61,0,0,0,1.41-3.08,3.46,3.46,0,0,0-1.46-3.1,7.3,7.3,0,0,0-4.09-1h-3.91Z"/><path class="cls-2" d="M1604.9,330.7v.48a5,5,0,0,1,0,.55h-12.45a5.84,5.84,0,0,0,.45,2.12,5.33,5.33,0,0,0,1.15,1.73,5.57,5.57,0,0,0,1.73,1.17,5.74,5.74,0,0,0,5.09-.35,5.88,5.88,0,0,0,1.88-1.81l1.64,1.28a8.14,8.14,0,0,1-3,2.44,8.31,8.31,0,0,1-3.48.74,8,8,0,0,1-3.1-.59,7.24,7.24,0,0,1-2.45-1.65,7.82,7.82,0,0,1-1.62-2.5,8.18,8.18,0,0,1-.59-3.15,8.39,8.39,0,0,1,.58-3.14,7.6,7.6,0,0,1,1.6-2.5,7.37,7.37,0,0,1,2.41-1.65,7.47,7.47,0,0,1,3-.59,7.66,7.66,0,0,1,3.11.59,6.41,6.41,0,0,1,2.25,1.6,6.91,6.91,0,0,1,1.36,2.36A8.8,8.8,0,0,1,1604.9,330.7Zm-2.21-.71a5.41,5.41,0,0,0-1.36-3.51,4.63,4.63,0,0,0-3.61-1.4,5,5,0,0,0-2,.4,5.35,5.35,0,0,0-1.64,1.09,5.43,5.43,0,0,0-1.12,1.57,5.07,5.07,0,0,0-.48,1.85Z"/><path class="cls-2" d="M1624.5,331.14a8.19,8.19,0,0,1-.59,3.15,7.41,7.41,0,0,1-4.19,4.15,8.61,8.61,0,0,1-3.24.59,8.52,8.52,0,0,1-3.21-.59,7.48,7.48,0,0,1-2.53-1.65,7.56,7.56,0,0,1-1.65-2.5,8.63,8.63,0,0,1,0-6.29,7.56,7.56,0,0,1,1.65-2.5,7.48,7.48,0,0,1,2.53-1.65,8.52,8.52,0,0,1,3.21-.59,8.61,8.61,0,0,1,3.24.59,7.41,7.41,0,0,1,4.19,4.15A8.19,8.19,0,0,1,1624.5,331.14Zm-2.31,0a6.88,6.88,0,0,0-.4-2.36,5.78,5.78,0,0,0-1.14-1.92,5.41,5.41,0,0,0-1.8-1.3,5.68,5.68,0,0,0-2.37-.48,5.57,5.57,0,0,0-2.36.48,5.44,5.44,0,0,0-1.78,1.3,5.77,5.77,0,0,0-1.14,1.92,7.14,7.14,0,0,0,0,4.72,5.77,5.77,0,0,0,1.14,1.92,5.23,5.23,0,0,0,1.78,1.28,5.73,5.73,0,0,0,2.36.46,5.85,5.85,0,0,0,2.37-.46,5.21,5.21,0,0,0,1.8-1.28,5.78,5.78,0,0,0,1.14-1.92A6.88,6.88,0,0,0,1622.19,331.14Z"/><path class="cls-2" d="M1631.37,346.35h-2.18V323.64h2.18v2.6h.1A6,6,0,0,1,1634,324a7.18,7.18,0,0,1,3.16-.75,8.05,8.05,0,0,1,3.19.61,7.28,7.28,0,0,1,2.44,1.67,7.54,7.54,0,0,1,1.57,2.5,8.9,8.9,0,0,1,0,6.22,7.53,7.53,0,0,1-1.57,2.5,7.26,7.26,0,0,1-2.44,1.67,8.05,8.05,0,0,1-3.19.61,7.18,7.18,0,0,1-3.16-.75,6.1,6.1,0,0,1-2.49-2.17h-.1Zm11.2-15.21a7.14,7.14,0,0,0-.38-2.36,5.71,5.71,0,0,0-1.11-1.92,5.24,5.24,0,0,0-1.78-1.3,5.76,5.76,0,0,0-2.41-.48,5.69,5.69,0,0,0-2.31.46,5.56,5.56,0,0,0-1.83,1.28,5.92,5.92,0,0,0-1.2,1.92,6.81,6.81,0,0,0,0,4.78,5.74,5.74,0,0,0,1.2,1.91,5.66,5.66,0,0,0,4.14,1.73,5.93,5.93,0,0,0,2.41-.46,5,5,0,0,0,1.78-1.28,5.71,5.71,0,0,0,1.11-1.92A7.14,7.14,0,0,0,1642.57,331.14Z"/><path class="cls-2" d="M1651.81,338.65h-2.18V314.4h2.18Z"/><path class="cls-2" d="M1671.31,330.7v.48a5,5,0,0,1,0,.55h-12.45a5.84,5.84,0,0,0,.45,2.12,5.33,5.33,0,0,0,1.15,1.73,5.57,5.57,0,0,0,1.73,1.17,5.74,5.74,0,0,0,5.09-.35,5.88,5.88,0,0,0,1.88-1.81l1.64,1.28a8.14,8.14,0,0,1-3,2.44,8.31,8.31,0,0,1-3.48.74,8,8,0,0,1-3.1-.59,7.24,7.24,0,0,1-2.45-1.65,7.82,7.82,0,0,1-1.62-2.5,8.18,8.18,0,0,1-.59-3.15,8.39,8.39,0,0,1,.58-3.14,7.6,7.6,0,0,1,1.6-2.5,7.37,7.37,0,0,1,2.41-1.65,7.47,7.47,0,0,1,3-.59,7.66,7.66,0,0,1,3.11.59,6.41,6.41,0,0,1,2.25,1.6,6.91,6.91,0,0,1,1.36,2.36A8.8,8.8,0,0,1,1671.31,330.7Zm-2.21-.71a5.41,5.41,0,0,0-1.36-3.51,4.63,4.63,0,0,0-3.61-1.4,5,5,0,0,0-2,.4,5.35,5.35,0,0,0-1.64,1.09,5.43,5.43,0,0,0-1.12,1.57,5.07,5.07,0,0,0-.48,1.85Z"/><path class="cls-2" d="M1698.94,331.14a8.19,8.19,0,0,1-.59,3.15,7.41,7.41,0,0,1-4.19,4.15,8.61,8.61,0,0,1-3.24.59,8.52,8.52,0,0,1-3.21-.59,7.48,7.48,0,0,1-2.53-1.65,7.56,7.56,0,0,1-1.65-2.5,8.63,8.63,0,0,1,0-6.29,7.56,7.56,0,0,1,1.65-2.5,7.48,7.48,0,0,1,2.53-1.65,8.52,8.52,0,0,1,3.21-.59,8.61,8.61,0,0,1,3.24.59,7.41,7.41,0,0,1,4.19,4.15A8.19,8.19,0,0,1,1698.94,331.14Zm-2.31,0a6.88,6.88,0,0,0-.4-2.36,5.78,5.78,0,0,0-1.14-1.92,5.41,5.41,0,0,0-1.8-1.3,5.68,5.68,0,0,0-2.37-.48,5.57,5.57,0,0,0-2.36.48,5.44,5.44,0,0,0-1.78,1.3,5.77,5.77,0,0,0-1.14,1.92,7.14,7.14,0,0,0,0,4.72,5.77,5.77,0,0,0,1.14,1.92,5.23,5.23,0,0,0,1.78,1.28,5.73,5.73,0,0,0,2.36.46,5.85,5.85,0,0,0,2.37-.46,5.21,5.21,0,0,0,1.8-1.28,5.78,5.78,0,0,0,1.14-1.92A6.88,6.88,0,0,0,1696.63,331.14Z"/><path class="cls-2" d="M1710,325.47h-3.53v13.19h-2.18V325.47h-3.14v-1.83h3.14v-4.11a6.05,6.05,0,0,1,1.25-4,4.77,4.77,0,0,1,3.85-1.48q.42,0,.9,0a4.6,4.6,0,0,1,.9.18l-.38,1.92c-.24-.06-.47-.12-.71-.16a4.5,4.5,0,0,0-.8-.06,3.11,3.11,0,0,0-1.43.29,2.06,2.06,0,0,0-.87.82,3.57,3.57,0,0,0-.42,1.24,9.56,9.56,0,0,0-.11,1.51v3.85H1710Z"/><path class="cls-2" d="M1728.65,325.47h-4.24v8.76a5,5,0,0,0,.16,1.38,2,2,0,0,0,.47.85,1.59,1.59,0,0,0,.72.42,3.43,3.43,0,0,0,.9.11,3.77,3.77,0,0,0,.95-.13,4.78,4.78,0,0,0,.95-.35l.1,1.89a6.43,6.43,0,0,1-1.2.34,7.79,7.79,0,0,1-1.36.11,5.57,5.57,0,0,1-1.28-.16,3.24,3.24,0,0,1-1.25-.61,3.33,3.33,0,0,1-.95-1.22,4.7,4.7,0,0,1-.37-2v-9.37h-3.11v-1.83h3.11V319.4h2.18v4.24h4.24Z"/><path class="cls-2" d="M1734.36,326.11a4.52,4.52,0,0,1,2-2.09,6.21,6.21,0,0,1,3-.77,5.28,5.28,0,0,1,4.28,1.7,6.76,6.76,0,0,1,1.43,4.49v9.21h-2.18v-8.31a11,11,0,0,0-.19-2.15,4.51,4.51,0,0,0-.66-1.65,3.15,3.15,0,0,0-1.25-1.07,4.47,4.47,0,0,0-2-.38,4.21,4.21,0,0,0-1.68.35,4.14,4.14,0,0,0-1.46,1.08,5.35,5.35,0,0,0-1,1.83,8,8,0,0,0-.38,2.62v7.7h-2.18V314.4h2.18v11.71Z"/><path class="cls-2" d="M1764.42,330.7v.48a5,5,0,0,1,0,.55h-12.45a5.84,5.84,0,0,0,.45,2.12,5.33,5.33,0,0,0,1.15,1.73,5.57,5.57,0,0,0,1.73,1.17,5.74,5.74,0,0,0,5.09-.35,5.88,5.88,0,0,0,1.88-1.81l1.64,1.28a8.14,8.14,0,0,1-3,2.44,8.31,8.31,0,0,1-3.48.74,8,8,0,0,1-3.1-.59,7.24,7.24,0,0,1-2.45-1.65,7.82,7.82,0,0,1-1.62-2.5,8.18,8.18,0,0,1-.59-3.15,8.39,8.39,0,0,1,.58-3.14,7.6,7.6,0,0,1,1.6-2.5,7.37,7.37,0,0,1,2.41-1.65,7.47,7.47,0,0,1,3-.59,7.66,7.66,0,0,1,3.11.59,6.41,6.41,0,0,1,2.25,1.6,6.91,6.91,0,0,1,1.36,2.36A8.8,8.8,0,0,1,1764.42,330.7Zm-2.21-.71a5.41,5.41,0,0,0-1.36-3.51,4.63,4.63,0,0,0-3.61-1.4,5,5,0,0,0-2,.4,5.35,5.35,0,0,0-1.64,1.09,5.43,5.43,0,0,0-1.12,1.57A5.07,5.07,0,0,0,1752,330Z"/><path class="cls-2" d="M1783.9,325.47h-4.24v8.76a5,5,0,0,0,.16,1.38,2,2,0,0,0,.47.85,1.59,1.59,0,0,0,.72.42,3.43,3.43,0,0,0,.9.11,3.77,3.77,0,0,0,.95-.13,4.78,4.78,0,0,0,.95-.35l.1,1.89a6.43,6.43,0,0,1-1.2.34,7.79,7.79,0,0,1-1.36.11,5.57,5.57,0,0,1-1.28-.16,3.24,3.24,0,0,1-1.25-.61,3.33,3.33,0,0,1-.95-1.22,4.7,4.7,0,0,1-.37-2v-9.37h-3.11v-1.83h3.11V319.4h2.18v4.24h4.24Z"/><path class="cls-2" d="M1789.61,326.11a4.52,4.52,0,0,1,2-2.09,6.21,6.21,0,0,1,3-.77,5.28,5.28,0,0,1,4.28,1.7,6.76,6.76,0,0,1,1.43,4.49v9.21h-2.18v-8.31a11,11,0,0,0-.19-2.15,4.51,4.51,0,0,0-.66-1.65,3.15,3.15,0,0,0-1.25-1.07,4.47,4.47,0,0,0-2-.38,4.21,4.21,0,0,0-1.68.35,4.14,4.14,0,0,0-1.46,1.08,5.35,5.35,0,0,0-1,1.83,8,8,0,0,0-.38,2.62v7.7h-2.18V314.4h2.18v11.71Z"/><path class="cls-2" d="M1819.68,330.7v.48a5,5,0,0,1,0,.55h-12.45a5.84,5.84,0,0,0,.45,2.12,5.33,5.33,0,0,0,1.15,1.73,5.57,5.57,0,0,0,1.73,1.17,5.74,5.74,0,0,0,5.09-.35,5.88,5.88,0,0,0,1.88-1.81l1.64,1.28a8.14,8.14,0,0,1-3,2.44,8.31,8.31,0,0,1-3.48.74,8,8,0,0,1-3.1-.59,7.24,7.24,0,0,1-2.45-1.65,7.82,7.82,0,0,1-1.62-2.5,8.18,8.18,0,0,1-.59-3.15,8.39,8.39,0,0,1,.58-3.14,7.6,7.6,0,0,1,1.6-2.5,7.37,7.37,0,0,1,2.41-1.65,7.47,7.47,0,0,1,3-.59,7.66,7.66,0,0,1,3.11.59,6.41,6.41,0,0,1,2.25,1.6,6.91,6.91,0,0,1,1.36,2.36A8.8,8.8,0,0,1,1819.68,330.7Zm-2.21-.71a5.41,5.41,0,0,0-1.36-3.51,4.63,4.63,0,0,0-3.61-1.4,5,5,0,0,0-2,.4,5.35,5.35,0,0,0-1.64,1.09,5.43,5.43,0,0,0-1.12,1.57,5.07,5.07,0,0,0-.48,1.85Z"/><path class="cls-2" d="M1841.78,326.62a5.87,5.87,0,0,1,3.08,2.15,6.28,6.28,0,0,1,1.22,3.91,6,6,0,0,1-.59,2.71,6.39,6.39,0,0,1-1.59,2.05,7.18,7.18,0,0,1-2.33,1.32,8.51,8.51,0,0,1-5.55,0,7.18,7.18,0,0,1-2.33-1.32,6.38,6.38,0,0,1-1.59-2.05,6,6,0,0,1-.59-2.71,6.81,6.81,0,0,1,.32-2.13,6.25,6.25,0,0,1,.9-1.76,5.75,5.75,0,0,1,1.36-1.33,6.22,6.22,0,0,1,1.72-.83v-.06a4.51,4.51,0,0,1-1.4-.75,4.94,4.94,0,0,1-1.07-1.19,6.07,6.07,0,0,1-.71-1.51,5.59,5.59,0,0,1-.26-1.68,6,6,0,0,1,.51-2.5,5.69,5.69,0,0,1,1.4-1.91,6.43,6.43,0,0,1,2-1.22,7.21,7.21,0,0,1,4.93,0,6.4,6.4,0,0,1,2.05,1.22,5.7,5.7,0,0,1,1.4,1.91,6,6,0,0,1,.51,2.5,5.6,5.6,0,0,1-.26,1.68,6.12,6.12,0,0,1-.71,1.51,5,5,0,0,1-1.07,1.19,4.51,4.51,0,0,1-1.4.75Zm-8,5.81a5.21,5.21,0,0,0,.35,1.92,4.33,4.33,0,0,0,1,1.54,4.79,4.79,0,0,0,1.57,1,5.81,5.81,0,0,0,4.07,0,4.79,4.79,0,0,0,1.57-1,4.34,4.34,0,0,0,1-1.54,5.22,5.22,0,0,0,.35-1.92,5,5,0,0,0-.35-1.89,4.41,4.41,0,0,0-1-1.51,4.59,4.59,0,0,0-1.57-1,6.06,6.06,0,0,0-4.07,0,4.58,4.58,0,0,0-1.57,1,4.4,4.4,0,0,0-1,1.51A5,5,0,0,0,1833.83,332.43Zm.8-10.88a4.05,4.05,0,0,0,.32,1.64,3.85,3.85,0,0,0,.9,1.28,4.21,4.21,0,0,0,1.33.85,4.45,4.45,0,0,0,3.24,0,4.22,4.22,0,0,0,1.33-.85,3.86,3.86,0,0,0,.9-1.28,4.07,4.07,0,0,0,.32-1.64,4.42,4.42,0,0,0-.32-1.68,4.05,4.05,0,0,0-.88-1.35,4.22,4.22,0,0,0-5.94,0,4,4,0,0,0-.88,1.35A4.4,4.4,0,0,0,1834.63,321.55Z"/><path class="cls-2" d="M1864.24,338.65h-14.5v-2.41l9.3-9.4q.51-.51,1-1.11a9.6,9.6,0,0,0,.88-1.23,6.27,6.27,0,0,0,.61-1.36,5,5,0,0,0,.22-1.49,4.42,4.42,0,0,0-.35-1.8,3.94,3.94,0,0,0-1-1.36,4.48,4.48,0,0,0-1.44-.87,4.88,4.88,0,0,0-1.72-.31,4.41,4.41,0,0,0-3.08,1.14,5.19,5.19,0,0,0-1.6,2.9l-2.28-.45a6.57,6.57,0,0,1,.85-2.21,6.79,6.79,0,0,1,1.54-1.77,7.14,7.14,0,0,1,2.07-1.15,7.33,7.33,0,0,1,2.5-.42,8.43,8.43,0,0,1,2.62.4,6.28,6.28,0,0,1,2.16,1.19,5.79,5.79,0,0,1,1.48,2,6.29,6.29,0,0,1,.55,2.71,6.47,6.47,0,0,1-.3,2,8.8,8.8,0,0,1-.8,1.76,10.26,10.26,0,0,1-1.17,1.59q-.67.75-1.41,1.49l-8.18,8.12h12Z"/><path class="cls-2" d="M1879,326.62a5.87,5.87,0,0,1,3.08,2.15,6.28,6.28,0,0,1,1.22,3.91,6,6,0,0,1-.59,2.71,6.39,6.39,0,0,1-1.59,2.05,7.18,7.18,0,0,1-2.33,1.32,8.51,8.51,0,0,1-5.55,0,7.18,7.18,0,0,1-2.33-1.32,6.38,6.38,0,0,1-1.59-2.05,6,6,0,0,1-.59-2.71,6.81,6.81,0,0,1,.32-2.13,6.25,6.25,0,0,1,.9-1.76,5.75,5.75,0,0,1,1.36-1.33,6.22,6.22,0,0,1,1.72-.83v-.06a4.51,4.51,0,0,1-1.4-.75,4.94,4.94,0,0,1-1.07-1.19,6.07,6.07,0,0,1-.71-1.51,5.59,5.59,0,0,1-.26-1.68,6,6,0,0,1,.51-2.5,5.69,5.69,0,0,1,1.4-1.91,6.43,6.43,0,0,1,2-1.22,7.21,7.21,0,0,1,4.93,0,6.4,6.4,0,0,1,2.05,1.22,5.7,5.7,0,0,1,1.4,1.91,6,6,0,0,1,.51,2.5,5.6,5.6,0,0,1-.26,1.68,6.12,6.12,0,0,1-.71,1.51,5,5,0,0,1-1.07,1.19,4.51,4.51,0,0,1-1.4.75Zm-8,5.81a5.21,5.21,0,0,0,.35,1.92,4.33,4.33,0,0,0,1,1.54,4.79,4.79,0,0,0,1.57,1,5.81,5.81,0,0,0,4.07,0,4.79,4.79,0,0,0,1.57-1,4.34,4.34,0,0,0,1-1.54,5.22,5.22,0,0,0,.35-1.92,5,5,0,0,0-.35-1.89,4.41,4.41,0,0,0-1-1.51,4.59,4.59,0,0,0-1.57-1,6.06,6.06,0,0,0-4.07,0,4.58,4.58,0,0,0-1.57,1,4.4,4.4,0,0,0-1,1.51A5,5,0,0,0,1871,332.43Zm.8-10.88a4.05,4.05,0,0,0,.32,1.64,3.85,3.85,0,0,0,.9,1.28,4.21,4.21,0,0,0,1.33.85,4.45,4.45,0,0,0,3.24,0,4.22,4.22,0,0,0,1.33-.85,3.86,3.86,0,0,0,.9-1.28,4.07,4.07,0,0,0,.32-1.64,4.42,4.42,0,0,0-.32-1.68,4.05,4.05,0,0,0-.88-1.35,4.22,4.22,0,0,0-5.94,0,4,4,0,0,0-.88,1.35A4.4,4.4,0,0,0,1871.85,321.55Z"/><path class="cls-2" d="M1888.59,343.15h-1.83l2.15-7.54h2.28Z"/><path class="cls-2" d="M1903,315.36a5.83,5.83,0,0,1,3.54,1,7.65,7.65,0,0,1,2.29,2.73A13.28,13.28,0,0,1,1910,323a25.78,25.78,0,0,1,.37,4.36,25.5,25.5,0,0,1-.37,4.35,13.27,13.27,0,0,1-1.23,3.82,7.49,7.49,0,0,1-2.29,2.71,6.66,6.66,0,0,1-7.11,0,7.49,7.49,0,0,1-2.29-2.71,12.91,12.91,0,0,1-1.22-3.82,26.68,26.68,0,0,1-.35-4.35,27,27,0,0,1,.35-4.36,12.92,12.92,0,0,1,1.22-3.83,7.65,7.65,0,0,1,2.29-2.73A5.89,5.89,0,0,1,1903,315.36Zm0,2a3.54,3.54,0,0,0-2.51.93,6.49,6.49,0,0,0-1.58,2.37,13,13,0,0,0-.8,3.22,27.68,27.68,0,0,0-.23,3.48,27.31,27.31,0,0,0,.23,3.47,12.76,12.76,0,0,0,.8,3.19,6.35,6.35,0,0,0,1.58,2.34,3.57,3.57,0,0,0,2.51.91,3.53,3.53,0,0,0,2.48-.91A6.35,6.35,0,0,0,1907,334a13.24,13.24,0,0,0,.82-3.19,25.51,25.51,0,0,0,.24-3.47,25.87,25.87,0,0,0-.24-3.48,13.52,13.52,0,0,0-.82-3.22,6.49,6.49,0,0,0-1.58-2.37A3.5,3.5,0,0,0,1903,317.32Z"/><path class="cls-2" d="M1921.56,315.36a5.83,5.83,0,0,1,3.54,1,7.65,7.65,0,0,1,2.29,2.73,13.28,13.28,0,0,1,1.23,3.83,25.78,25.78,0,0,1,.37,4.36,25.5,25.5,0,0,1-.37,4.35,13.27,13.27,0,0,1-1.23,3.82,7.49,7.49,0,0,1-2.29,2.71,6.66,6.66,0,0,1-7.11,0,7.49,7.49,0,0,1-2.29-2.71,12.91,12.91,0,0,1-1.22-3.82,26.68,26.68,0,0,1-.35-4.35,27,27,0,0,1,.35-4.36,12.92,12.92,0,0,1,1.22-3.83,7.65,7.65,0,0,1,2.29-2.73A5.89,5.89,0,0,1,1921.56,315.36Zm0,2a3.54,3.54,0,0,0-2.51.93,6.49,6.49,0,0,0-1.58,2.37,13,13,0,0,0-.8,3.22,27.68,27.68,0,0,0-.23,3.48,27.31,27.31,0,0,0,.23,3.47,12.76,12.76,0,0,0,.8,3.19,6.35,6.35,0,0,0,1.58,2.34,3.57,3.57,0,0,0,2.51.91,3.53,3.53,0,0,0,2.48-.91,6.35,6.35,0,0,0,1.58-2.34,13.24,13.24,0,0,0,.82-3.19,25.51,25.51,0,0,0,.24-3.47,25.87,25.87,0,0,0-.24-3.48,13.52,13.52,0,0,0-.82-3.22,6.49,6.49,0,0,0-1.58-2.37A3.5,3.5,0,0,0,1921.56,317.32Z"/><path class="cls-2" d="M1940.17,315.36a5.83,5.83,0,0,1,3.54,1,7.65,7.65,0,0,1,2.29,2.73,13.28,13.28,0,0,1,1.23,3.83,25.78,25.78,0,0,1,.37,4.36,25.5,25.5,0,0,1-.37,4.35,13.27,13.27,0,0,1-1.23,3.82,7.49,7.49,0,0,1-2.29,2.71,6.66,6.66,0,0,1-7.11,0,7.49,7.49,0,0,1-2.29-2.71,12.91,12.91,0,0,1-1.22-3.82,26.68,26.68,0,0,1-.35-4.35,27,27,0,0,1,.35-4.36,12.92,12.92,0,0,1,1.22-3.83,7.65,7.65,0,0,1,2.29-2.73A5.89,5.89,0,0,1,1940.17,315.36Zm0,2a3.54,3.54,0,0,0-2.51.93,6.49,6.49,0,0,0-1.58,2.37,13,13,0,0,0-.8,3.22,27.68,27.68,0,0,0-.23,3.48,27.31,27.31,0,0,0,.23,3.47,12.76,12.76,0,0,0,.8,3.19,6.35,6.35,0,0,0,1.58,2.34,3.57,3.57,0,0,0,2.51.91,3.53,3.53,0,0,0,2.48-.91,6.35,6.35,0,0,0,1.58-2.34,13.24,13.24,0,0,0,.82-3.19,25.51,25.51,0,0,0,.24-3.47,25.87,25.87,0,0,0-.24-3.48,13.52,13.52,0,0,0-.82-3.22,6.49,6.49,0,0,0-1.58-2.37A3.5,3.5,0,0,0,1940.17,317.32Z"/><path class="cls-2" d="M1952.76,343.15h-1.83l2.15-7.54h2.28Z"/><path class="cls-2" d="M1970,338.65h-2.18V314.4H1970Z"/><path class="cls-2" d="M1990.78,331.14a8.19,8.19,0,0,1-.59,3.15,7.41,7.41,0,0,1-4.19,4.15,8.61,8.61,0,0,1-3.24.59,8.52,8.52,0,0,1-3.21-.59,7.48,7.48,0,0,1-2.53-1.65,7.56,7.56,0,0,1-1.65-2.5,8.63,8.63,0,0,1,0-6.29,7.56,7.56,0,0,1,1.65-2.5,7.48,7.48,0,0,1,2.53-1.65,8.52,8.52,0,0,1,3.21-.59,8.61,8.61,0,0,1,3.24.59,7.41,7.41,0,0,1,4.19,4.15A8.19,8.19,0,0,1,1990.78,331.14Zm-2.31,0a6.88,6.88,0,0,0-.4-2.36,5.78,5.78,0,0,0-1.14-1.92,5.41,5.41,0,0,0-1.8-1.3,5.68,5.68,0,0,0-2.37-.48,5.57,5.57,0,0,0-2.36.48,5.44,5.44,0,0,0-1.78,1.3,5.77,5.77,0,0,0-1.14,1.92,7.14,7.14,0,0,0,0,4.72,5.77,5.77,0,0,0,1.14,1.92,5.23,5.23,0,0,0,1.78,1.28,5.73,5.73,0,0,0,2.36.46,5.85,5.85,0,0,0,2.37-.46,5.21,5.21,0,0,0,1.8-1.28,5.78,5.78,0,0,0,1.14-1.92A6.88,6.88,0,0,0,1988.47,331.14Z"/><path class="cls-2" d="M2003.46,327.2a3.83,3.83,0,0,0-1.46-1.52,4.21,4.21,0,0,0-2.23-.59,5.34,5.34,0,0,0-1.15.13,3.15,3.15,0,0,0-1,.42,2.26,2.26,0,0,0-.72.74,2,2,0,0,0-.27,1.06,1.82,1.82,0,0,0,.87,1.62,8.33,8.33,0,0,0,2.73.95,9.12,9.12,0,0,1,3.93,1.59,3.45,3.45,0,0,1,1.27,2.81,4.15,4.15,0,0,1-1.8,3.61,5.23,5.23,0,0,1-1.81.8,8.78,8.78,0,0,1-2,.24,8.13,8.13,0,0,1-3.3-.71,6.12,6.12,0,0,1-2.63-2.21l1.73-1.28a4.9,4.9,0,0,0,4.17,2.34,6.84,6.84,0,0,0,1.35-.13,3.08,3.08,0,0,0,1.12-.45,2.3,2.3,0,0,0,1.06-2.05,1.91,1.91,0,0,0-1.14-1.78,14.94,14.94,0,0,0-3.29-1.11q-.67-.16-1.43-.4a4.88,4.88,0,0,1-1.4-.71,3.82,3.82,0,0,1-1.06-1.17,3.41,3.41,0,0,1-.42-1.76,4,4,0,0,1,.45-2,3.94,3.94,0,0,1,1.2-1.35,5.35,5.35,0,0,1,1.72-.79,7.69,7.69,0,0,1,2-.26,7,7,0,0,1,3,.71,4.92,4.92,0,0,1,2.21,2Z"/><path class="cls-2" d="M2016.48,325.47h-4.24v8.76a5,5,0,0,0,.16,1.38,2,2,0,0,0,.47.85,1.59,1.59,0,0,0,.72.42,3.43,3.43,0,0,0,.9.11,3.77,3.77,0,0,0,.95-.13,4.78,4.78,0,0,0,.95-.35l.1,1.89a6.43,6.43,0,0,1-1.2.34,7.79,7.79,0,0,1-1.36.11,5.57,5.57,0,0,1-1.28-.16,3.24,3.24,0,0,1-1.25-.61,3.33,3.33,0,0,1-.95-1.22,4.7,4.7,0,0,1-.37-2v-9.37H2007v-1.83h3.11V319.4h2.18v4.24h4.24Z"/><path class="cls-2" d="M1606.65,368.55h-4.24v8.76a5,5,0,0,0,.16,1.38,2,2,0,0,0,.47.85,1.59,1.59,0,0,0,.72.42,3.43,3.43,0,0,0,.9.11,3.77,3.77,0,0,0,.95-.13,4.78,4.78,0,0,0,.95-.35l.1,1.89a6.43,6.43,0,0,1-1.2.34,7.79,7.79,0,0,1-1.36.11,5.57,5.57,0,0,1-1.28-.16,3.24,3.24,0,0,1-1.25-.61,3.33,3.33,0,0,1-.95-1.22,4.7,4.7,0,0,1-.37-2v-9.37h-3.11v-1.83h3.11v-4.24h2.18v4.24h4.24Z"/><path class="cls-2" d="M1612.36,369.19a4.52,4.52,0,0,1,2-2.09,6.21,6.21,0,0,1,3-.77,5.28,5.28,0,0,1,4.28,1.7,6.76,6.76,0,0,1,1.43,4.49v9.21h-2.18v-8.31a11,11,0,0,0-.19-2.15,4.51,4.51,0,0,0-.66-1.65,3.15,3.15,0,0,0-1.25-1.07,4.47,4.47,0,0,0-2-.38,4.21,4.21,0,0,0-1.68.35,4.14,4.14,0,0,0-1.46,1.08,5.35,5.35,0,0,0-1,1.83,8,8,0,0,0-.38,2.62v7.7h-2.18V357.48h2.18v11.71Z"/><path class="cls-2" d="M1642.42,373.78v.48a5,5,0,0,1,0,.55h-12.45a5.84,5.84,0,0,0,.45,2.12,5.33,5.33,0,0,0,1.15,1.73,5.57,5.57,0,0,0,1.73,1.17,5.74,5.74,0,0,0,5.09-.35,5.88,5.88,0,0,0,1.88-1.81l1.64,1.28a8.14,8.14,0,0,1-3,2.44,8.31,8.31,0,0,1-3.48.74,8,8,0,0,1-3.1-.59,7.24,7.24,0,0,1-2.45-1.65,7.82,7.82,0,0,1-1.62-2.5,8.18,8.18,0,0,1-.59-3.15,8.39,8.39,0,0,1,.58-3.14,7.6,7.6,0,0,1,1.6-2.5,7.37,7.37,0,0,1,2.41-1.65,7.47,7.47,0,0,1,3-.59,7.66,7.66,0,0,1,3.11.59,6.41,6.41,0,0,1,2.25,1.6,6.91,6.91,0,0,1,1.36,2.36A8.8,8.8,0,0,1,1642.42,373.78Zm-2.21-.71a5.41,5.41,0,0,0-1.36-3.51,4.63,4.63,0,0,0-3.61-1.4,5,5,0,0,0-2,.4,5.35,5.35,0,0,0-1.64,1.09,5.43,5.43,0,0,0-1.12,1.57,5.07,5.07,0,0,0-.48,1.85Z"/><path class="cls-2" d="M1649.77,360.95a1.42,1.42,0,0,1-.48,1.11,1.51,1.51,0,0,1-2.12,0,1.51,1.51,0,0,1,0-2.21,1.51,1.51,0,0,1,2.12,0A1.42,1.42,0,0,1,1649.77,360.95Zm-.45,20.79h-2.18v-15h2.18Z"/><path class="cls-2" d="M1655.09,368.46q0-1-.1-1.73h2.09q.06.61.1,1.35t0,1.22h.06a5.31,5.31,0,0,1,4.81-3q.42,0,.75,0a4.08,4.08,0,0,1,.69.13l-.29,2.09a4.09,4.09,0,0,0-.64-.13,6.46,6.46,0,0,0-.9-.06,4.47,4.47,0,0,0-1.67.32,3.58,3.58,0,0,0-1.4,1,5.29,5.29,0,0,0-1,1.76,8,8,0,0,0-.37,2.58v7.68h-2.18V370Q1655.13,369.42,1655.09,368.46Z"/><path class="cls-2" d="M1676.94,381.74h-2.18V357.48h2.18Z"/><path class="cls-2" d="M1685.45,360.95a1.42,1.42,0,0,1-.48,1.11,1.51,1.51,0,0,1-2.12,0,1.51,1.51,0,0,1,0-2.21,1.51,1.51,0,0,1,2.12,0A1.42,1.42,0,0,1,1685.45,360.95Zm-.45,20.79h-2.18v-15H1685Z"/><path class="cls-2" d="M1697,381.74h-2.41l-6.13-15h2.44l4.88,12.71h.06l4.91-12.71h2.34Z"/><path class="cls-2" d="M1720.13,373.78v.48a5,5,0,0,1,0,.55h-12.45a5.84,5.84,0,0,0,.45,2.12,5.33,5.33,0,0,0,1.15,1.73,5.57,5.57,0,0,0,1.73,1.17,5.74,5.74,0,0,0,5.09-.35,5.88,5.88,0,0,0,1.88-1.81l1.64,1.28a8.14,8.14,0,0,1-3,2.44,8.31,8.31,0,0,1-3.48.74,8,8,0,0,1-3.1-.59,7.24,7.24,0,0,1-2.45-1.65,7.82,7.82,0,0,1-1.62-2.5,8.18,8.18,0,0,1-.59-3.15,8.39,8.39,0,0,1,.58-3.14,7.6,7.6,0,0,1,1.6-2.5,7.37,7.37,0,0,1,2.41-1.65,7.47,7.47,0,0,1,3-.59,7.66,7.66,0,0,1,3.11.59,6.41,6.41,0,0,1,2.25,1.6,6.91,6.91,0,0,1,1.36,2.36A8.8,8.8,0,0,1,1720.13,373.78Zm-2.21-.71a5.41,5.41,0,0,0-1.36-3.51,4.63,4.63,0,0,0-3.61-1.4,5,5,0,0,0-2,.4,5.35,5.35,0,0,0-1.64,1.09,5.43,5.43,0,0,0-1.12,1.57,5.07,5.07,0,0,0-.48,1.85Z"/><path class="cls-2" d="M1732.81,370.28a3.83,3.83,0,0,0-1.46-1.52,4.21,4.21,0,0,0-2.23-.59,5.34,5.34,0,0,0-1.15.13,3.15,3.15,0,0,0-1,.42,2.26,2.26,0,0,0-.72.74,2,2,0,0,0-.27,1.06,1.82,1.82,0,0,0,.87,1.62,8.33,8.33,0,0,0,2.73.95,9.12,9.12,0,0,1,3.93,1.59,3.45,3.45,0,0,1,1.27,2.81,4.15,4.15,0,0,1-1.8,3.61,5.23,5.23,0,0,1-1.81.8,8.78,8.78,0,0,1-2,.24,8.13,8.13,0,0,1-3.3-.71,6.12,6.12,0,0,1-2.63-2.21l1.73-1.28a4.9,4.9,0,0,0,4.17,2.34,6.84,6.84,0,0,0,1.35-.13,3.08,3.08,0,0,0,1.12-.45,2.3,2.3,0,0,0,1.06-2.05,1.91,1.91,0,0,0-1.14-1.78,14.94,14.94,0,0,0-3.29-1.11q-.67-.16-1.43-.4a4.88,4.88,0,0,1-1.4-.71,3.82,3.82,0,0,1-1.06-1.17,3.41,3.41,0,0,1-.42-1.76,4,4,0,0,1,.45-2,3.94,3.94,0,0,1,1.2-1.35,5.35,5.35,0,0,1,1.72-.79,7.69,7.69,0,0,1,2-.26,7,7,0,0,1,3,.71,4.92,4.92,0,0,1,2.21,2Z"/><path class="cls-2" d="M1759.44,379.21a6.16,6.16,0,0,1-2.5,2.18,7.28,7.28,0,0,1-3.18.74,8.05,8.05,0,0,1-3.19-.61,7.26,7.26,0,0,1-2.44-1.67,7.53,7.53,0,0,1-1.57-2.5,8.91,8.91,0,0,1,0-6.22,7.54,7.54,0,0,1,1.57-2.5,7.28,7.28,0,0,1,2.44-1.67,8.05,8.05,0,0,1,3.19-.61,7.15,7.15,0,0,1,3.18.75,6.2,6.2,0,0,1,2.5,2.23h.06V357.48h2.18v24.26h-2.18v-2.53Zm-11.13-5a7.14,7.14,0,0,0,.38,2.36,5.71,5.71,0,0,0,1.11,1.92,5,5,0,0,0,1.78,1.28,5.93,5.93,0,0,0,2.41.46,5.63,5.63,0,0,0,5.34-3.64,6.81,6.81,0,0,0,0-4.78,5.92,5.92,0,0,0-1.2-1.92,5.56,5.56,0,0,0-1.83-1.28,5.69,5.69,0,0,0-2.31-.46,5.76,5.76,0,0,0-2.41.48,5.23,5.23,0,0,0-1.78,1.3,5.71,5.71,0,0,0-1.11,1.92A7.14,7.14,0,0,0,1748.3,374.23Z"/><path class="cls-2" d="M1778.43,381.74q-.06-.61-.1-1.35t0-1.22h-.06a4.94,4.94,0,0,1-2.09,2.13,6.09,6.09,0,0,1-3,.82,5.28,5.28,0,0,1-4.28-1.7,6.75,6.75,0,0,1-1.43-4.49v-9.21h2.18V375a11,11,0,0,0,.19,2.15,4.49,4.49,0,0,0,.66,1.65,3.13,3.13,0,0,0,1.25,1.08,4.47,4.47,0,0,0,2,.38,4.21,4.21,0,0,0,1.68-.35,4.14,4.14,0,0,0,1.46-1.08,5.36,5.36,0,0,0,1-1.83,8,8,0,0,0,.39-2.62v-7.7h2.18v11.71q0,.61,0,1.57t.1,1.73Z"/><path class="cls-2" d="M1799.83,373.78v.48a5,5,0,0,1,0,.55h-12.45a5.84,5.84,0,0,0,.45,2.12,5.33,5.33,0,0,0,1.15,1.73,5.57,5.57,0,0,0,1.73,1.17,5.74,5.74,0,0,0,5.09-.35,5.88,5.88,0,0,0,1.88-1.81l1.64,1.28a8.14,8.14,0,0,1-3,2.44,8.31,8.31,0,0,1-3.48.74,8,8,0,0,1-3.1-.59,7.24,7.24,0,0,1-2.45-1.65,7.82,7.82,0,0,1-1.62-2.5,8.18,8.18,0,0,1-.59-3.15,8.39,8.39,0,0,1,.58-3.14,7.6,7.6,0,0,1,1.6-2.5,7.37,7.37,0,0,1,2.41-1.65,7.47,7.47,0,0,1,3-.59,7.66,7.66,0,0,1,3.11.59,6.41,6.41,0,0,1,2.25,1.6,6.91,6.91,0,0,1,1.36,2.36A8.8,8.8,0,0,1,1799.83,373.78Zm-2.21-.71a5.41,5.41,0,0,0-1.36-3.51,4.63,4.63,0,0,0-3.61-1.4,5,5,0,0,0-2,.4,5.35,5.35,0,0,0-1.64,1.09,5.43,5.43,0,0,0-1.12,1.57,5.07,5.07,0,0,0-.48,1.85Z"/><path class="cls-2" d="M1819.31,368.55h-4.24v8.76a5,5,0,0,0,.16,1.38,2,2,0,0,0,.47.85,1.59,1.59,0,0,0,.72.42,3.43,3.43,0,0,0,.9.11,3.77,3.77,0,0,0,.95-.13,4.78,4.78,0,0,0,.95-.35l.1,1.89a6.43,6.43,0,0,1-1.2.34,7.79,7.79,0,0,1-1.36.11,5.57,5.57,0,0,1-1.28-.16,3.24,3.24,0,0,1-1.25-.61,3.33,3.33,0,0,1-.95-1.22,4.7,4.7,0,0,1-.37-2v-9.37h-3.11v-1.83h3.11v-4.24h2.18v4.24h4.24Z"/><path class="cls-2" d="M1837.63,374.23a8.19,8.19,0,0,1-.59,3.15,7.41,7.41,0,0,1-4.19,4.15,8.61,8.61,0,0,1-3.24.59,8.52,8.52,0,0,1-3.21-.59,7.48,7.48,0,0,1-2.53-1.65,7.56,7.56,0,0,1-1.65-2.5,8.63,8.63,0,0,1,0-6.29,7.56,7.56,0,0,1,1.65-2.5,7.48,7.48,0,0,1,2.53-1.65,8.52,8.52,0,0,1,3.21-.59,8.61,8.61,0,0,1,3.24.59,7.41,7.41,0,0,1,4.19,4.15A8.19,8.19,0,0,1,1837.63,374.23Zm-2.31,0a6.88,6.88,0,0,0-.4-2.36,5.78,5.78,0,0,0-1.14-1.92,5.41,5.41,0,0,0-1.8-1.3,5.68,5.68,0,0,0-2.37-.48,5.57,5.57,0,0,0-2.36.48,5.44,5.44,0,0,0-1.78,1.3,5.77,5.77,0,0,0-1.14,1.92,7.14,7.14,0,0,0,0,4.72,5.77,5.77,0,0,0,1.14,1.92,5.23,5.23,0,0,0,1.78,1.28,5.73,5.73,0,0,0,2.36.46,5.85,5.85,0,0,0,2.37-.46,5.21,5.21,0,0,0,1.8-1.28,5.78,5.78,0,0,0,1.14-1.92A6.88,6.88,0,0,0,1835.32,374.23Z"/><path class="cls-2" d="M1865.25,374.23a8.19,8.19,0,0,1-.59,3.15,7.41,7.41,0,0,1-4.19,4.15,8.61,8.61,0,0,1-3.24.59,8.52,8.52,0,0,1-3.21-.59,7.48,7.48,0,0,1-2.53-1.65,7.56,7.56,0,0,1-1.65-2.5,8.63,8.63,0,0,1,0-6.29,7.56,7.56,0,0,1,1.65-2.5,7.48,7.48,0,0,1,2.53-1.65,8.52,8.52,0,0,1,3.21-.59,8.61,8.61,0,0,1,3.24.59,7.41,7.41,0,0,1,4.19,4.15A8.19,8.19,0,0,1,1865.25,374.23Zm-2.31,0a6.88,6.88,0,0,0-.4-2.36,5.78,5.78,0,0,0-1.14-1.92,5.41,5.41,0,0,0-1.8-1.3,5.68,5.68,0,0,0-2.37-.48,5.57,5.57,0,0,0-2.36.48,5.44,5.44,0,0,0-1.78,1.3,5.77,5.77,0,0,0-1.14,1.92,7.14,7.14,0,0,0,0,4.72,5.77,5.77,0,0,0,1.14,1.92,5.23,5.23,0,0,0,1.78,1.28,5.73,5.73,0,0,0,2.36.46,5.85,5.85,0,0,0,2.37-.46,5.21,5.21,0,0,0,1.8-1.28,5.78,5.78,0,0,0,1.14-1.92A6.88,6.88,0,0,0,1862.94,374.23Z"/><path class="cls-2" d="M1876.1,381.74h-2.41l-6.13-15H1870l4.88,12.71h.06l4.91-12.71h2.34Z"/><path class="cls-2" d="M1899.26,373.78v.48a5,5,0,0,1,0,.55h-12.45a5.84,5.84,0,0,0,.45,2.12,5.33,5.33,0,0,0,1.15,1.73,5.57,5.57,0,0,0,1.73,1.17,5.74,5.74,0,0,0,5.09-.35,5.88,5.88,0,0,0,1.88-1.81l1.64,1.28a8.14,8.14,0,0,1-3,2.44,8.31,8.31,0,0,1-3.48.74,8,8,0,0,1-3.1-.59,7.24,7.24,0,0,1-2.45-1.65,7.82,7.82,0,0,1-1.62-2.5,8.18,8.18,0,0,1-.59-3.15,8.39,8.39,0,0,1,.58-3.14,7.6,7.6,0,0,1,1.6-2.5,7.37,7.37,0,0,1,2.41-1.65,7.47,7.47,0,0,1,3-.59,7.66,7.66,0,0,1,3.11.59,6.41,6.41,0,0,1,2.25,1.6,6.91,6.91,0,0,1,1.36,2.36A8.8,8.8,0,0,1,1899.26,373.78Zm-2.21-.71a5.41,5.41,0,0,0-1.36-3.51,4.63,4.63,0,0,0-3.61-1.4,5,5,0,0,0-2,.4,5.35,5.35,0,0,0-1.64,1.09,5.43,5.43,0,0,0-1.12,1.57,5.07,5.07,0,0,0-.48,1.85Z"/><path class="cls-2" d="M1903.92,368.46q0-1-.1-1.73h2.09q.06.61.1,1.35t0,1.22h.06a5.31,5.31,0,0,1,4.81-3q.42,0,.75,0a4.08,4.08,0,0,1,.69.13l-.29,2.09a4.09,4.09,0,0,0-.64-.13,6.46,6.46,0,0,0-.9-.06,4.47,4.47,0,0,0-1.67.32,3.58,3.58,0,0,0-1.4,1,5.29,5.29,0,0,0-1,1.76,8,8,0,0,0-.37,2.58v7.68h-2.18V370Q1903.95,369.42,1903.92,368.46Z"/><path class="cls-2" d="M1927.27,379.21a6.16,6.16,0,0,1-2.5,2.18,7.28,7.28,0,0,1-3.18.74,8.05,8.05,0,0,1-3.19-.61,7.26,7.26,0,0,1-2.44-1.67,7.53,7.53,0,0,1-1.57-2.5,8.91,8.91,0,0,1,0-6.22,7.54,7.54,0,0,1,1.57-2.5,7.28,7.28,0,0,1,2.44-1.67,8.05,8.05,0,0,1,3.19-.61,7.15,7.15,0,0,1,3.18.75,6.21,6.21,0,0,1,2.5,2.23h.06V357.48h2.18v24.26h-2.18v-2.53Zm-11.13-5a7.14,7.14,0,0,0,.38,2.36,5.71,5.71,0,0,0,1.11,1.92,5,5,0,0,0,1.78,1.28,5.93,5.93,0,0,0,2.41.46,5.63,5.63,0,0,0,5.34-3.64,6.81,6.81,0,0,0,0-4.78,5.92,5.92,0,0,0-1.2-1.92,5.56,5.56,0,0,0-1.83-1.28,5.69,5.69,0,0,0-2.31-.46,5.76,5.76,0,0,0-2.41.48,5.23,5.23,0,0,0-1.78,1.3,5.71,5.71,0,0,0-1.11,1.92A7.14,7.14,0,0,0,1916.14,374.23Z"/><path class="cls-2" d="M1950.28,374.23a8.19,8.19,0,0,1-.59,3.15,7.41,7.41,0,0,1-4.19,4.15,8.61,8.61,0,0,1-3.24.59,8.52,8.52,0,0,1-3.21-.59,7.48,7.48,0,0,1-2.53-1.65,7.56,7.56,0,0,1-1.65-2.5,8.63,8.63,0,0,1,0-6.29,7.56,7.56,0,0,1,1.65-2.5,7.48,7.48,0,0,1,2.53-1.65,8.52,8.52,0,0,1,3.21-.59,8.61,8.61,0,0,1,3.24.59,7.41,7.41,0,0,1,4.19,4.15A8.19,8.19,0,0,1,1950.28,374.23Zm-2.31,0a6.88,6.88,0,0,0-.4-2.36,5.78,5.78,0,0,0-1.14-1.92,5.41,5.41,0,0,0-1.8-1.3,5.68,5.68,0,0,0-2.37-.48,5.57,5.57,0,0,0-2.36.48,5.44,5.44,0,0,0-1.78,1.3,5.77,5.77,0,0,0-1.14,1.92,7.14,7.14,0,0,0,0,4.72,5.77,5.77,0,0,0,1.14,1.92,5.23,5.23,0,0,0,1.78,1.28,5.73,5.73,0,0,0,2.36.46,5.85,5.85,0,0,0,2.37-.46,5.21,5.21,0,0,0,1.8-1.28,5.78,5.78,0,0,0,1.14-1.92A6.88,6.88,0,0,0,1948,374.23Z"/><path class="cls-2" d="M1968.63,373.78v.48a5,5,0,0,1,0,.55h-12.45a5.84,5.84,0,0,0,.45,2.12,5.33,5.33,0,0,0,1.15,1.73,5.57,5.57,0,0,0,1.73,1.17,5.74,5.74,0,0,0,5.09-.35,5.88,5.88,0,0,0,1.88-1.81l1.64,1.28a8.14,8.14,0,0,1-3,2.44,8.31,8.31,0,0,1-3.48.74,8,8,0,0,1-3.1-.59,7.24,7.24,0,0,1-2.45-1.65,7.82,7.82,0,0,1-1.62-2.5,8.18,8.18,0,0,1-.59-3.15,8.39,8.39,0,0,1,.58-3.14,7.6,7.6,0,0,1,1.6-2.5,7.37,7.37,0,0,1,2.41-1.65,7.47,7.47,0,0,1,3-.59,7.66,7.66,0,0,1,3.11.59,6.41,6.41,0,0,1,2.25,1.6,6.91,6.91,0,0,1,1.36,2.36A8.8,8.8,0,0,1,1968.63,373.78Zm-2.21-.71a5.41,5.41,0,0,0-1.36-3.51,4.63,4.63,0,0,0-3.61-1.4,5,5,0,0,0-2,.4,5.35,5.35,0,0,0-1.64,1.09,5.43,5.43,0,0,0-1.12,1.57,5.07,5.07,0,0,0-.48,1.85Z"/><path class="cls-2" d="M1981.31,370.28a3.83,3.83,0,0,0-1.46-1.52,4.21,4.21,0,0,0-2.23-.59,5.34,5.34,0,0,0-1.15.13,3.15,3.15,0,0,0-1,.42,2.26,2.26,0,0,0-.72.74,2,2,0,0,0-.27,1.06,1.82,1.82,0,0,0,.87,1.62,8.33,8.33,0,0,0,2.73.95,9.12,9.12,0,0,1,3.93,1.59,3.45,3.45,0,0,1,1.27,2.81,4.15,4.15,0,0,1-1.8,3.61,5.23,5.23,0,0,1-1.81.8,8.78,8.78,0,0,1-2,.24,8.13,8.13,0,0,1-3.3-.71,6.12,6.12,0,0,1-2.63-2.21l1.73-1.28a4.9,4.9,0,0,0,4.17,2.34,6.84,6.84,0,0,0,1.35-.13,3.08,3.08,0,0,0,1.12-.45,2.3,2.3,0,0,0,1.06-2.05,1.91,1.91,0,0,0-1.14-1.78,14.94,14.94,0,0,0-3.29-1.11q-.67-.16-1.43-.4a4.88,4.88,0,0,1-1.4-.71,3.82,3.82,0,0,1-1.06-1.17,3.41,3.41,0,0,1-.42-1.76,4,4,0,0,1,.45-2,3.94,3.94,0,0,1,1.2-1.35,5.35,5.35,0,0,1,1.72-.79,7.69,7.69,0,0,1,2-.26,7,7,0,0,1,3,.71,4.92,4.92,0,0,1,2.21,2Z"/><path class="cls-2" d="M1990.58,380.2a1.74,1.74,0,0,1-.48,1.2,1.74,1.74,0,0,1-2.5,0,1.74,1.74,0,0,1,0-2.41,1.74,1.74,0,0,1,2.5,0A1.74,1.74,0,0,1,1990.58,380.2Z"/><path class="cls-3" d="M631,239.73A18.33,18.33,0,0,1,623.68,255a23,23,0,0,1-7.78,3.76,35,35,0,0,1-18.44,0,23.59,23.59,0,0,1-7.73-3.71,18.41,18.41,0,0,1-5.35-6.28,18.83,18.83,0,0,1-2-8.94,15.82,15.82,0,0,1,.92-5.45,15.34,15.34,0,0,1,2.52-4.49,17.14,17.14,0,0,1,8.2-5.55v-.18a16,16,0,0,1-7.06-5.09,13.79,13.79,0,0,1-2.84-8.94,16.87,16.87,0,0,1,1.83-8,17.18,17.18,0,0,1,5-5.82,22.21,22.21,0,0,1,7.24-3.53,30.92,30.92,0,0,1,8.62-1.19,31.58,31.58,0,0,1,8.57,1.15,22.18,22.18,0,0,1,7.2,3.44,17.37,17.37,0,0,1,5,5.73,16.29,16.29,0,0,1,1.88,7.93,14.69,14.69,0,0,1-2.75,9.08,14.43,14.43,0,0,1-7.15,5.13v.27a16.44,16.44,0,0,1,4.55,2.15,15.84,15.84,0,0,1,6.09,7.88A15.69,15.69,0,0,1,631,239.73Zm-15.31-.55a8.53,8.53,0,0,0-2.52-6.28,8.75,8.75,0,0,0-6.46-2.52,9,9,0,0,0-6.56,2.47,8.48,8.48,0,0,0-2.52,6.33,8.15,8.15,0,0,0,2.52,6.28,9.25,9.25,0,0,0,6.56,2.34,9.09,9.09,0,0,0,6.51-2.34A8.22,8.22,0,0,0,615.74,239.18Zm-1.19-28.24a6.92,6.92,0,0,0-2.29-5.32,7.84,7.84,0,0,0-5.5-2.11,7.56,7.56,0,0,0-5.59,2.11,7.2,7.2,0,0,0-2.11,5.32,7.82,7.82,0,0,0,2.06,5.41,7.2,7.2,0,0,0,5.64,2.29,7.41,7.41,0,0,0,5.59-2.29A7.55,7.55,0,0,0,614.54,210.95Z"/><path class="cls-3" d="M642.6,258.25V245.44l25.3-22.88a24,24,0,0,0,3.85-4.67,9.92,9.92,0,0,0,1.47-5.31A7.52,7.52,0,0,0,671,207a8.84,8.84,0,0,0-12.15.55,12.2,12.2,0,0,0-2.89,7.1l-14.76-2a23.18,23.18,0,0,1,2.7-8.82,22.88,22.88,0,0,1,5.45-6.59,23.52,23.52,0,0,1,7.56-4.15,28.19,28.19,0,0,1,9-1.43,31.91,31.91,0,0,1,8.71,1.19,22.7,22.7,0,0,1,7.52,3.67,18.32,18.32,0,0,1,5.27,6.23,18.71,18.71,0,0,1,2,8.8,20.11,20.11,0,0,1-.92,6.28A20.88,20.88,0,0,1,686,223a29.81,29.81,0,0,1-3.67,4.45q-2.06,2.06-4.26,4.08l-15,13.38h26.49v13.38Z"/><path class="cls-3" d="M749.49,239.73A18.33,18.33,0,0,1,742.12,255a23,23,0,0,1-7.78,3.76,35,35,0,0,1-18.44,0,23.59,23.59,0,0,1-7.73-3.71,18.41,18.41,0,0,1-5.35-6.28,18.83,18.83,0,0,1-2-8.94,15.82,15.82,0,0,1,.92-5.45,15.34,15.34,0,0,1,2.52-4.49,17.14,17.14,0,0,1,8.2-5.55v-.18a16,16,0,0,1-7.06-5.09,13.79,13.79,0,0,1-2.84-8.94,16.87,16.87,0,0,1,1.83-8,17.18,17.18,0,0,1,5-5.82,22.21,22.21,0,0,1,7.24-3.53,30.92,30.92,0,0,1,8.62-1.19,31.58,31.58,0,0,1,8.57,1.15,22.18,22.18,0,0,1,7.2,3.44,17.37,17.37,0,0,1,5,5.73,16.29,16.29,0,0,1,1.88,7.93,14.69,14.69,0,0,1-2.75,9.08,14.43,14.43,0,0,1-7.15,5.13v.27a16.44,16.44,0,0,1,4.55,2.15,15.84,15.84,0,0,1,6.09,7.88A15.69,15.69,0,0,1,749.49,239.73Zm-15.31-.55a8.53,8.53,0,0,0-2.52-6.28,8.75,8.75,0,0,0-6.46-2.52,9,9,0,0,0-6.56,2.47,8.48,8.48,0,0,0-2.52,6.33,8.15,8.15,0,0,0,2.52,6.28,9.25,9.25,0,0,0,6.56,2.34,9.09,9.09,0,0,0,6.51-2.34A8.22,8.22,0,0,0,734.18,239.18ZM733,210.95a6.92,6.92,0,0,0-2.29-5.32,7.84,7.84,0,0,0-5.5-2.11,7.56,7.56,0,0,0-5.59,2.11,7.2,7.2,0,0,0-2.11,5.32,7.82,7.82,0,0,0,2.06,5.41,7.2,7.2,0,0,0,5.64,2.29,7.41,7.41,0,0,0,5.59-2.29A7.55,7.55,0,0,0,733,210.95Z"/><path class="cls-3" d="M769,269.62H756.64l6.88-26h14.39Z"/><path class="cls-3" d="M837.31,225.62a60.72,60.72,0,0,1-1.38,13.11,33.49,33.49,0,0,1-4.4,11A21.85,21.85,0,0,1,812,260a22.16,22.16,0,0,1-19.66-10.31,32.86,32.86,0,0,1-4.45-11,60.72,60.72,0,0,1-1.38-13.11,60.09,60.09,0,0,1,1.38-13.06,31.87,31.87,0,0,1,4.45-10.82,22.94,22.94,0,0,1,7.93-7.38A23.47,23.47,0,0,1,812,191.6a23.21,23.21,0,0,1,11.69,2.75,22.68,22.68,0,0,1,7.84,7.38,32.47,32.47,0,0,1,4.4,10.82A60.09,60.09,0,0,1,837.31,225.62Zm-15.77,0q0-3-.37-6.69a33.39,33.39,0,0,0-1.38-6.83,14.85,14.85,0,0,0-2.89-5.32,6.2,6.2,0,0,0-4.91-2.15,6.34,6.34,0,0,0-4.95,2.15,15,15,0,0,0-3,5.32,31.35,31.35,0,0,0-1.42,6.83q-.37,3.67-.37,6.69t.37,6.83a31.39,31.39,0,0,0,1.42,6.88,14.93,14.93,0,0,0,3,5.32,6.33,6.33,0,0,0,4.95,2.15,6.2,6.2,0,0,0,4.91-2.15,14.84,14.84,0,0,0,2.89-5.32,33.41,33.41,0,0,0,1.38-6.88Q821.54,228.73,821.54,225.62Z"/><path class="cls-3" d="M896.53,225.62a60.72,60.72,0,0,1-1.38,13.11,33.49,33.49,0,0,1-4.4,11A21.85,21.85,0,0,1,871.23,260a22.16,22.16,0,0,1-19.66-10.31,32.86,32.86,0,0,1-4.45-11,60.72,60.72,0,0,1-1.38-13.11,60.09,60.09,0,0,1,1.38-13.06,31.87,31.87,0,0,1,4.45-10.82,22.94,22.94,0,0,1,7.93-7.38,23.47,23.47,0,0,1,11.73-2.75,23.21,23.21,0,0,1,11.69,2.75,22.68,22.68,0,0,1,7.84,7.38,32.47,32.47,0,0,1,4.4,10.82A60.09,60.09,0,0,1,896.53,225.62Zm-15.77,0q0-3-.37-6.69a33.39,33.39,0,0,0-1.38-6.83,14.85,14.85,0,0,0-2.89-5.32,6.2,6.2,0,0,0-4.91-2.15,6.34,6.34,0,0,0-4.95,2.15,15,15,0,0,0-3,5.32,31.35,31.35,0,0,0-1.42,6.83q-.37,3.67-.37,6.69t.37,6.83a31.39,31.39,0,0,0,1.42,6.88,14.93,14.93,0,0,0,3,5.32,6.33,6.33,0,0,0,4.95,2.15,6.2,6.2,0,0,0,4.91-2.15,14.84,14.84,0,0,0,2.89-5.32,33.41,33.41,0,0,0,1.38-6.88Q880.76,228.73,880.76,225.62Z"/><path class="cls-3" d="M955.75,225.62a60.72,60.72,0,0,1-1.38,13.11,33.49,33.49,0,0,1-4.4,11A21.85,21.85,0,0,1,930.45,260a22.16,22.16,0,0,1-19.66-10.31,32.86,32.86,0,0,1-4.45-11A60.72,60.72,0,0,1,905,225.62a60.09,60.09,0,0,1,1.38-13.06,31.87,31.87,0,0,1,4.45-10.82,22.94,22.94,0,0,1,7.93-7.38,23.47,23.47,0,0,1,11.73-2.75,23.21,23.21,0,0,1,11.69,2.75,22.68,22.68,0,0,1,7.84,7.38,32.47,32.47,0,0,1,4.4,10.82A60.09,60.09,0,0,1,955.75,225.62Zm-15.77,0q0-3-.37-6.69a33.39,33.39,0,0,0-1.38-6.83,14.85,14.85,0,0,0-2.89-5.32,6.2,6.2,0,0,0-4.91-2.15,6.34,6.34,0,0,0-4.95,2.15,15,15,0,0,0-3,5.32,31.35,31.35,0,0,0-1.42,6.83q-.37,3.67-.37,6.69t.37,6.83a31.39,31.39,0,0,0,1.42,6.88,14.93,14.93,0,0,0,3,5.32,6.33,6.33,0,0,0,4.95,2.15,6.2,6.2,0,0,0,4.91-2.15,14.84,14.84,0,0,0,2.89-5.32,33.41,33.41,0,0,0,1.38-6.88Q940,228.73,940,225.62Z"/><path class="cls-3" d="M1658.66,258.25V210.58l-12.1,9.35-8-10.91,21.35-15.68h14v64.9Z"/><path class="cls-3" d="M1698.17,258.25V245.44l25.3-22.88a24,24,0,0,0,3.85-4.67,9.92,9.92,0,0,0,1.47-5.31,7.52,7.52,0,0,0-2.2-5.63,8.84,8.84,0,0,0-12.15.55,12.21,12.21,0,0,0-2.89,7.1l-14.76-2a23.18,23.18,0,0,1,2.7-8.82,22.88,22.88,0,0,1,5.45-6.59,23.53,23.53,0,0,1,7.56-4.15,28.19,28.19,0,0,1,9-1.43,31.91,31.91,0,0,1,8.71,1.19,22.69,22.69,0,0,1,7.52,3.67,18.32,18.32,0,0,1,5.27,6.23,18.71,18.71,0,0,1,2,8.8,20.12,20.12,0,0,1-.92,6.28,20.9,20.9,0,0,1-2.52,5.18,29.81,29.81,0,0,1-3.67,4.45q-2.06,2.06-4.26,4.08l-15,13.38h26.49v13.38Z"/><path class="cls-3" d="M1765.37,269.62H1753l6.88-26h14.39Z"/><path class="cls-3" d="M1833.76,214.8a26.47,26.47,0,0,1-2,10.5,60.72,60.72,0,0,1-5.22,9.58l-15.66,23.38h-18.59l16.15-22.37.18-.28a11.4,11.4,0,0,1-2.24.55,15.81,15.81,0,0,1-2.33.18,22.05,22.05,0,0,1-8.15-1.51,20.63,20.63,0,0,1-6.77-4.31,20.83,20.83,0,0,1-6.41-15.36,23.53,23.53,0,0,1,2-9.9,21.63,21.63,0,0,1,5.49-7.43,24.29,24.29,0,0,1,8.14-4.63,31.53,31.53,0,0,1,19.86,0,23.79,23.79,0,0,1,8.1,4.63,22.15,22.15,0,0,1,5.44,7.33A22.47,22.47,0,0,1,1833.76,214.8Zm-15.31-.18a10.64,10.64,0,0,0-2.72-7.29,9.39,9.39,0,0,0-7.41-3.07,10,10,0,0,0-7.5,2.89,10.38,10.38,0,0,0-2.81,7.56,10.12,10.12,0,0,0,2.76,7.29,9.72,9.72,0,0,0,7.37,2.89,9.77,9.77,0,0,0,10.31-10.27Z"/><path class="cls-3" d="M1891.79,239.73a18.33,18.33,0,0,1-7.37,15.26,23,23,0,0,1-7.78,3.76,35,35,0,0,1-18.44,0,23.6,23.6,0,0,1-7.73-3.71,18.42,18.42,0,0,1-5.35-6.28,18.84,18.84,0,0,1-2-8.94,15.83,15.83,0,0,1,.92-5.45,15.36,15.36,0,0,1,2.52-4.49,17.14,17.14,0,0,1,8.2-5.55v-.18a16,16,0,0,1-7.06-5.09,13.79,13.79,0,0,1-2.84-8.94,16.86,16.86,0,0,1,1.83-8,17.18,17.18,0,0,1,5-5.82,22.22,22.22,0,0,1,7.24-3.53,30.92,30.92,0,0,1,8.62-1.19,31.59,31.59,0,0,1,8.57,1.15,22.17,22.17,0,0,1,7.2,3.44,17.37,17.37,0,0,1,5,5.73,16.29,16.29,0,0,1,1.88,7.93,14.69,14.69,0,0,1-2.75,9.08,14.43,14.43,0,0,1-7.15,5.13v.27a16.44,16.44,0,0,1,4.55,2.15,15.84,15.84,0,0,1,6.09,7.88A15.69,15.69,0,0,1,1891.79,239.73Zm-15.31-.55a8.53,8.53,0,0,0-2.52-6.28,8.76,8.76,0,0,0-6.46-2.52,9,9,0,0,0-6.55,2.47,8.48,8.48,0,0,0-2.52,6.33,8.14,8.14,0,0,0,2.52,6.28,9.25,9.25,0,0,0,6.55,2.34,9.09,9.09,0,0,0,6.51-2.34A8.22,8.22,0,0,0,1876.48,239.18Zm-1.19-28.24a6.92,6.92,0,0,0-2.29-5.32,7.84,7.84,0,0,0-5.5-2.11,7.56,7.56,0,0,0-5.59,2.11,7.21,7.21,0,0,0-2.11,5.32,7.82,7.82,0,0,0,2.06,5.41,7.2,7.2,0,0,0,5.64,2.29,7.42,7.42,0,0,0,5.59-2.29A7.55,7.55,0,0,0,1875.29,210.95Z"/><path class="cls-3" d="M1952.2,214.8a26.47,26.47,0,0,1-2,10.5,60.72,60.72,0,0,1-5.22,9.58l-15.66,23.38h-18.59l16.15-22.37.18-.28a11.4,11.4,0,0,1-2.24.55,15.81,15.81,0,0,1-2.33.18,22.05,22.05,0,0,1-8.15-1.51,20.63,20.63,0,0,1-6.77-4.31,20.83,20.83,0,0,1-6.41-15.36,23.53,23.53,0,0,1,2-9.9,21.63,21.63,0,0,1,5.49-7.43,24.29,24.29,0,0,1,8.14-4.63,31.53,31.53,0,0,1,19.86,0,23.79,23.79,0,0,1,8.1,4.63,22.15,22.15,0,0,1,5.44,7.33A22.47,22.47,0,0,1,1952.2,214.8Zm-15.31-.18a10.64,10.64,0,0,0-2.72-7.29,9.39,9.39,0,0,0-7.41-3.07,10,10,0,0,0-7.5,2.89,10.38,10.38,0,0,0-2.81,7.56,10.12,10.12,0,0,0,2.76,7.29,9.72,9.72,0,0,0,7.37,2.89,9.77,9.77,0,0,0,10.31-10.27Z"/><path class="cls-4" d="M1274.22,214.8a26.47,26.47,0,0,1-2,10.5,60.72,60.72,0,0,1-5.22,9.58l-15.66,23.38h-18.59l16.15-22.37.18-.28a11.4,11.4,0,0,1-2.24.55,15.81,15.81,0,0,1-2.33.18,22.05,22.05,0,0,1-8.15-1.51,20.63,20.63,0,0,1-6.77-4.31,20.83,20.83,0,0,1-6.41-15.36,23.53,23.53,0,0,1,2-9.9,21.63,21.63,0,0,1,5.49-7.43,24.29,24.29,0,0,1,8.14-4.63,31.53,31.53,0,0,1,19.86,0,23.79,23.79,0,0,1,8.1,4.63,22.15,22.15,0,0,1,5.44,7.33A22.47,22.47,0,0,1,1274.22,214.8Zm-15.31-.18a10.64,10.64,0,0,0-2.72-7.29,9.39,9.39,0,0,0-7.41-3.07,10,10,0,0,0-7.5,2.89,10.38,10.38,0,0,0-2.81,7.56,10.12,10.12,0,0,0,2.76,7.29,9.72,9.72,0,0,0,7.37,2.89,9.77,9.77,0,0,0,10.31-10.27Z"/><path class="cls-4" d="M1304.29,258.25V210.58l-12.1,9.35-8-10.91,21.35-15.68h14v64.9Z"/></svg>