<?xml version="1.0" encoding="utf-8"?>
<!-- Generator: Adobe Illustrator 21.1.0, SVG Export Plug-In . SVG Version: 6.00 Build 0)  -->
<svg version="1.1" id="Layer_1" xmlns="http://www.w3.org/2000/svg" xmlns:xlink="http://www.w3.org/1999/xlink" x="0px" y="0px"
	 viewBox="0 0 300 168.8" style="enable-background:new 0 0 300 168.8;" xml:space="preserve">
<style type="text/css">
	.st0{fill:#FFFFFF;}
</style>
<image style="overflow:visible;" width="1921" height="1081" xlink:href="../Assignment 3/IMG_6925.png"  transform="matrix(0.1562 0 0 0.1562 -3.571429e-02 -0.1226)">
</image>
<g>
	<path class="st0" d="M147.6,109.3c-14.2,0-25.8-11.6-25.8-25.8c0-14.2,11.6-25.8,25.8-25.8c14.2,0,25.8,11.6,25.8,25.8
		C173.5,97.7,161.9,109.3,147.6,109.3z M147.6,60.9c-12.5,0-22.6,10.1-22.6,22.6c0,12.5,10.1,22.6,22.6,22.6
		c12.5,0,22.6-10.1,22.6-22.6C170.2,71,160.1,60.9,147.6,60.9z"/>
	<polygon class="st0" points="140.6,72 141.1,94.9 157.9,83 	"/>
</g>
</svg>
